<svg width="20" height="20" viewBox="0 0 20 20" fill="none" xmlns="http://www.w3.org/2000/svg">
<circle cx="10" cy="10" r="9" stroke="#942100" stroke-width="2"/>
<path d="M10.0841 3.42896C10.5713 3.42896 10.9644 3.8272 10.9581 4.31428L10.8607 11.8185C10.8552 12.2414 10.5108 12.5813 10.0879 12.5813C9.66524 12.5813 9.32097 12.2419 9.31507 11.8192L9.21024 4.31516C9.20343 3.82774 9.59668 3.42896 10.0841 3.42896ZM9.14307 15.3665C9.14307 15.1037 9.22526 14.8819 9.38964 14.7008C9.56011 14.5198 9.80973 14.4293 10.1385 14.4293C10.4612 14.4293 10.7078 14.5198 10.8782 14.7008C11.0548 14.8819 11.1431 15.1037 11.1431 15.3665C11.1431 15.6175 11.0548 15.8336 10.8782 16.0146C10.7078 16.1956 10.4612 16.2861 10.1385 16.2861C9.80973 16.2861 9.56011 16.1956 9.38964 16.0146C9.22526 15.8336 9.14307 15.6175 9.14307 15.3665Z" fill="#942100"/>
</svg>
