<svg width="28" height="29" viewBox="0 0 28 29" fill="none" xmlns="http://www.w3.org/2000/svg">
<g id="briefcase">
<path id="Vector" d="M23.3333 8.49438H4.66665C3.37798 8.49438 2.33331 9.55079 2.33331 10.8539V22.6517C2.33331 23.9548 3.37798 25.0112 4.66665 25.0112H23.3333C24.622 25.0112 25.6666 23.9548 25.6666 22.6517V10.8539C25.6666 9.55079 24.622 8.49438 23.3333 8.49438Z" stroke="#303030" stroke-width="2" stroke-linecap="round" stroke-linejoin="round"/>
<path id="Vector_2" d="M18.6666 25.0112V6.13482C18.6666 5.50903 18.4208 4.90887 17.9832 4.46636C17.5456 4.02386 16.9522 3.77527 16.3333 3.77527H11.6666C11.0478 3.77527 10.4543 4.02386 10.0167 4.46636C9.57915 4.90887 9.33331 5.50903 9.33331 6.13482V25.0112" stroke="#303030" stroke-width="2" stroke-linecap="round" stroke-linejoin="round"/>
</g>
</svg>
