<svg width="20" height="20" viewBox="0 0 20 20" fill="none" xmlns="http://www.w3.org/2000/svg">
<g id="Layer_1" clip-path="url(#clip0_14_2178)">
<g id="Group">
<g id="Group_2">
<path id="Vector" d="M10 19C14.9706 19 19 14.9706 19 10C19 5.02944 14.9706 1 10 1C5.02944 1 1 5.02944 1 10C1 14.9706 5.02944 19 10 19Z" fill="white"/>
<path id="Vector_2" d="M10 2C14.41 2 18 5.59 18 10C18 14.41 14.41 18 10 18C5.59 18 2 14.41 2 10C2 5.59 5.59 2 10 2ZM10 0C4.51 0 0 4.51 0 10C0 15.49 4.51 20 10 20C15.49 20 20 15.49 20 10C20 4.51 15.52 0 10 0Z" fill="#303030"/>
</g>
<g id="Group_3">
<path id="Vector_3" d="M9 18.9399C4.51 18.4399 1 14.6199 1 9.99994C1 5.37994 4.51 1.54994 9 1.05994V18.9499V18.9399Z" fill="#303030"/>
<path id="Vector_4" d="M8 2.24999V17.74C4.55 16.85 2 13.71 2 9.98999C2 6.26999 4.55 3.12999 8 2.23999M10 -0.0100098C4.48 -9.76585e-06 0 4.47999 0 9.99999C0 15.52 4.48 20 10 20V-9.76585e-06V-0.0100098Z" fill="#303030"/>
</g>
</g>
<g id="Group_4">
<path id="Vector_5" d="M13.22 10.0401C13.22 8.26007 11.78 6.82007 10 6.82007V13.2601C11.78 13.2601 13.22 11.8201 13.22 10.0401Z" fill="#303030"/>
<path id="Vector_6" d="M10 13.2501V6.81006C8.22003 6.81006 6.78003 8.25006 6.78003 10.0301C6.78003 11.8101 8.22003 13.2501 10 13.2501Z" fill="white"/>
</g>
</g>
<defs>
<clipPath id="clip0_14_2178">
<rect width="20" height="20" fill="white"/>
</clipPath>
</defs>
</svg>
