<svg width="20" height="20" viewBox="0 0 20 20" fill="none" xmlns="http://www.w3.org/2000/svg">
<g id="Trash_light">
<path id="Vector 8" d="M7.46875 12.7978L7.46875 9.47369" stroke="#222222" stroke-width="1.5" stroke-linecap="round"/>
<path id="Vector 9" d="M12.4812 12.7978L12.4812 9.47369" stroke="#222222" stroke-width="1.5" stroke-linecap="round"/>
<path id="Rectangle 41" d="M0.952393 3.93353H18.9975V3.93353C17.5847 3.93353 16.8783 3.93353 16.3719 4.27443C16.1578 4.41851 15.9737 4.60264 15.8296 4.81667C15.4887 5.32308 15.4887 6.02949 15.4887 7.4423V14.338C15.4887 16.2236 15.4887 17.1664 14.9029 17.7522C14.3172 18.338 13.3744 18.338 11.4887 18.338H8.46117C6.57555 18.338 5.63274 18.338 5.04695 17.7522C4.46116 17.1664 4.46116 16.2236 4.46116 14.338V7.44231C4.46116 6.02949 4.46116 5.32308 4.12027 4.81667C3.97619 4.60264 3.79206 4.41851 3.57803 4.27443C3.07162 3.93353 2.36521 3.93353 0.952393 3.93353V3.93353Z" stroke="#222222" stroke-width="1.5" stroke-linecap="round"/>
<path id="Ellipse 45" d="M5.71422 3.15791V3.15791C5.99269 1.92678 7.08663 1.05264 8.34885 1.05264H11.651C12.9132 1.05264 14.0072 1.92678 14.2856 3.15791V3.15791" stroke="#222222" stroke-width="1.5" stroke-linecap="round"/>
</g>
</svg>
