<svg width="20" height="20" viewBox="0 0 20 20" fill="none" xmlns="http://www.w3.org/2000/svg">
<path d="M1.13222 17.3519L1.85983 17.5338L1.13222 17.3519C1.1296 17.3623 1.12693 17.373 1.12421 17.3838C1.08638 17.5346 1.04001 17.7195 1.02436 17.8794C1.00668 18.0601 1.00511 18.4166 1.2942 18.7057L1.7731 18.2268L1.2942 18.7057C1.5833 18.9948 1.9398 18.9932 2.12051 18.9756C2.28046 18.9599 2.46532 18.9135 2.61611 18.8757C2.62695 18.873 2.63761 18.8703 2.64807 18.8677L6.43588 17.9207C6.45311 17.9164 6.47046 17.9121 6.48793 17.9078C6.702 17.8547 6.93217 17.7977 7.14238 17.6787C7.35258 17.5597 7.51993 17.3916 7.67557 17.2354C7.68827 17.2226 7.70089 17.21 7.71345 17.1974L17.4583 7.45253L17.49 7.42088C17.7961 7.11487 18.0767 6.8343 18.2743 6.57536C18.4918 6.2902 18.678 5.94501 18.678 5.50798C18.678 5.07096 18.4918 4.72577 18.2743 4.44061C18.0767 4.18165 17.796 3.90108 17.4899 3.59506L17.4583 3.56344L16.4365 2.5416L15.9185 3.0596L16.4365 2.5416L16.4048 2.50995C16.0988 2.20387 15.8183 1.92323 15.5593 1.72566C15.2742 1.50809 14.929 1.32193 14.4919 1.32193C14.0549 1.32193 13.7097 1.50809 13.4246 1.72566C13.1656 1.92323 12.885 2.20387 12.579 2.50995L12.5474 2.5416L2.80252 12.2865C2.78996 12.299 2.77729 12.3117 2.76453 12.3244C2.60828 12.48 2.44027 12.6473 2.32125 12.8575L2.95428 13.216L2.32125 12.8575C2.20224 13.0677 2.14518 13.2979 2.09212 13.512C2.08779 13.5294 2.08348 13.5468 2.07917 13.564L1.13222 17.3519Z" stroke="#33363F" stroke-width="1.5"/>
<path d="M11.2834 3.58289L16.4171 8.71658" stroke="#33363F" stroke-width="1.5"/>
</svg>
