<svg width="44" height="44" viewBox="0 0 44 44" fill="none" xmlns="http://www.w3.org/2000/svg">
<g id="Icons/icon-google">
<rect id="bg" width="44" height="44" rx="22" fill="#F6F6F6"/>
<path id="Vector" d="M36.1734 22.0867C36.1734 14.3047 29.8635 8 22.0867 8C14.3047 8 8 14.3047 8 22.0867C8 29.116 13.1496 34.9444 19.8857 36V26.1595H16.3085V22.0876H19.8857V18.9824C19.8857 15.4528 21.9855 13.5035 25.2043 13.5035C26.7459 13.5035 28.3597 13.7782 28.3597 13.7782V17.2444H26.5804C24.8336 17.2444 24.2878 18.3317 24.2878 19.4455V22.0867H28.1942L27.5665 26.1587H24.2878V35.9991C31.0186 34.9435 36.1734 29.116 36.1734 22.0867Z" fill="black"/>
</g>
</svg>
