<svg width="44" height="44" viewBox="0 0 44 44" fill="none" xmlns="http://www.w3.org/2000/svg">
<g id="Icons/icon-facebook">
<rect id="bg" width="44" height="44" rx="22" fill="#F6F6F6"/>
<path id="Vector" fill-rule="evenodd" clip-rule="evenodd" d="M22 8C14.2679 8 8 14.2681 8 21.9998C8 29.7318 14.2679 36 22 36C29.7316 36 36 29.732 36 21.9998C36 14.2681 29.7316 8 22 8ZM22.1636 30.1881C17.651 30.1881 13.996 26.5239 13.996 21.9999C13.996 17.476 17.651 13.8118 22.1636 13.8118C24.3689 13.8118 26.2113 14.6254 27.6257 15.9458L25.323 18.2539V18.2487C24.4656 17.4298 23.3784 17.0103 22.1636 17.0103C19.4683 17.0103 17.2785 19.2927 17.2785 21.995C17.2785 24.6966 19.4684 26.9846 22.1636 26.9846C24.6088 26.9846 26.2727 25.5824 26.6151 23.6582H22.1636V20.4647H29.8458C29.948 21.0121 30.0039 21.5854 30.0039 22.1841C30.0039 26.8617 26.8803 30.1881 22.1636 30.1881Z" fill="black"/>
</g>
</svg>
