<svg width="90" height="101" viewBox="0 0 90 101" fill="none" xmlns="http://www.w3.org/2000/svg">
<rect width="90" height="101" fill="#1E1E1E"/>
<g id="Profile - Edit">
<rect width="390" height="844" transform="translate(-149 -132)" fill="#FAFAFB"/>
<rect id="Rectangle 4672" x="-149" y="-24" width="390" height="229" fill="#F7F7F7"/>
<g id="Group 513768">
<g id="Hoodie">
<path id="Vector" d="M46.4148 36.854C40.058 36.592 34.6039 30.1675 35.6372 23.954C36.421 19.2415 40.2635 12.0687 45.2905 10.7322C47.8575 10.0495 50.8635 12.9407 52.4427 14.5319C55.0568 17.1655 56.9061 20.725 57.3449 24.3995C58.0715 30.4965 52.5455 36.6284 46.4133 36.8555C45.5077 36.889 45.5048 38.2866 46.4133 38.2531C53.294 37.9983 58.6395 31.8111 58.7936 25.2089C58.9389 18.978 52.5513 9.16142 45.5517 9.2939C42.8379 9.34485 40.4455 12.076 38.9132 13.97C36.5399 16.9035 34.7845 20.527 34.1665 24.2466C33.0232 31.1239 39.6441 37.9736 46.4118 38.2531C47.3203 38.2909 47.3174 36.8933 46.4118 36.8555L46.4148 36.854Z" fill="#222222"/>
<path id="Vector_2" d="M33.349 35.7534C27.8157 31.7528 30.3651 20.8982 32.0985 15.6922C34.463 8.5922 40.4191 -0.0160688 49.0963 1.63046C56.683 3.07027 60.4668 12.4195 62.1488 18.9183C63.2247 23.0761 65.4674 34.1433 60.166 36.6473C59.3455 37.0345 60.0617 38.2385 60.8763 37.8542C66.9806 34.9716 64.6939 23.4153 63.5065 18.5456C61.6865 11.0846 57.1292 1.34513 48.5063 0.123693C39.3609 -1.17053 33.3358 7.95164 30.7409 15.321C28.6552 21.2418 26.4977 32.5201 32.6386 36.9603C33.374 37.4917 34.0756 36.279 33.349 35.7534Z" fill="#222222"/>
<path id="Vector_3" d="M35.0516 35.6937C33.0848 35.8699 31.3412 37.464 29.8955 38.6607C26.6312 41.3598 23.7486 44.5393 20.9863 47.7305C14.226 55.538 8.03068 64.2336 3.89021 73.7037C3.11671 75.474 2.45917 77.2894 1.92491 79.1441C1.54184 80.4689 0.671466 82.9249 1.05748 84.3181C1.95867 87.566 8.31981 90.5447 11.4608 89.6435C14.3727 88.8079 16.7402 83.564 18.0758 81.2784C20.7001 76.7871 23.094 71.9349 24.4619 66.9065C24.6982 66.0359 23.3406 65.6662 23.1028 66.5353C21.9609 70.7382 20.0455 74.7053 17.9966 78.5385C16.3013 81.7093 14.3111 85.8671 11.3742 88.112C9.8624 89.2679 6.80806 87.5369 5.49151 86.7784C4.69893 86.3213 2.39019 84.7854 2.48119 83.6266C2.56045 82.6148 2.77033 81.6176 2.99489 80.6291C3.88434 76.7173 5.62948 73.0108 7.49349 69.476C11.5283 61.8242 16.7681 54.7417 22.4291 48.2036C24.7481 45.5249 27.1978 42.9437 29.8324 40.5664C31.1298 39.3959 33.1656 37.2588 35.0545 37.0899C35.9513 37.0098 35.9601 35.6122 35.0545 35.6923L35.0516 35.6937Z" fill="#222222"/>
<path id="Vector_4" d="M1.09711 84.8626C0.73898 86.084 0.3838 87.3054 0.0256738 88.5254C-0.0418418 88.7554 0.0256709 89.0408 0.206202 89.2053C2.37698 91.1575 4.78992 93.0719 7.7973 93.2292C10.6315 93.3777 10.7812 91.5069 11.7499 89.2126C12.1007 88.3813 10.7372 88.0217 10.3923 88.8413C10.1809 89.3421 9.59381 91.7501 8.99204 91.8243C8.14369 91.9277 7.1882 91.8418 6.35453 91.6816C4.9822 91.4167 3.32365 89.9696 2.26835 89.1427C1.03693 88.176 2.08342 86.5047 2.45623 85.2324C2.71014 84.3661 1.35103 83.9978 1.09858 84.8611L1.09711 84.8626Z" fill="#222222"/>
<path id="Vector_5" d="M24.9463 56.6532C22.479 67.0011 22.275 78.1658 21.9037 88.7525C21.8244 90.9872 21.252 93.0516 23.4727 94.2643C26.3568 95.8395 30.0598 96.2354 33.2566 96.6955C42.3609 98.0072 52.0934 98.5822 61.2359 97.3113C63.3905 97.0128 66.9439 96.7042 68.3383 94.7243C69.0105 93.7693 68.805 92.3892 68.8182 91.2929C68.8564 88.3726 68.7375 85.4493 68.5937 82.5318C68.2164 74.7898 67.6617 66.841 65.8123 59.2867C65.598 58.4118 64.2404 58.7816 64.4547 59.658C66.0266 66.0767 66.5594 72.7516 66.9997 79.3261C67.2008 82.3207 67.3299 85.3212 67.3916 88.3216C67.4195 89.6158 68.0154 92.9715 67.1054 94.0226C65.2531 96.1685 60.0838 96.0986 57.5754 96.285C52.657 96.6474 47.6946 96.5295 42.7763 96.2398C38.0737 95.9618 33.349 95.4799 28.7403 94.4914C26.4551 94.0022 23.2202 93.6354 23.2481 91.1765C23.3685 80.4893 23.9629 69.4294 25.8974 58.9097C26.0133 58.2779 26.1527 57.6504 26.3024 57.0259C26.5109 56.1495 25.1532 55.7768 24.9448 56.6546L24.9463 56.6532Z" fill="#222222"/>
<path id="Vector_6" d="M58.6865 37.4917C62.14 39.7205 64.7453 43.2451 67.1113 46.5178C70.3637 51.0148 73.1965 55.8103 75.8942 60.6509C80.4427 68.8078 84.909 77.3535 87.9105 86.2136C88.4139 87.7 88.7632 88.2314 87.57 89.3916C85.1878 91.7108 79.4945 92.6832 77.4412 89.6362C75.0473 86.084 73.6118 81.7777 72.1236 77.8048C69.6666 71.2492 67.487 64.5757 65.485 57.8688C65.2282 57.0069 63.8676 57.3752 64.1274 58.24C66.3084 65.5497 68.7067 72.8157 71.4352 79.9434C72.8501 83.6426 74.2753 87.6345 76.6031 90.8853C79.3551 94.7301 86.2285 92.6556 89.0597 89.8997C90.9751 88.0363 88.8014 84.4462 88.0088 82.4561C86.2402 78.0086 84.1883 73.6688 82.0645 69.3799C77.1828 59.5182 71.7904 49.4367 64.5838 41.0235C63.0618 39.2459 61.3739 37.563 59.3954 36.2863C58.6307 35.7927 57.9262 37.0025 58.685 37.4931L58.6865 37.4917Z" fill="#222222"/>
<path id="Vector_7" d="M78.8927 91.9335C78.8971 93.2729 79.2743 95.5337 80.8448 95.79C82.5811 96.0724 84.5611 95.525 86.2446 95.1567C87.0988 94.9703 88.386 94.8917 89.0817 94.2992C90.5744 93.0297 90.002 90.9901 89.0935 89.5882C88.6047 88.8326 87.3865 89.5314 87.8782 90.2928C88.3669 91.0484 88.866 91.8898 88.4726 92.8012C88.3141 93.168 87.9809 93.3005 88.2143 93.2379C87.4393 93.4475 86.6556 93.6324 85.8718 93.8086C84.6433 94.0852 83.4001 94.324 82.1438 94.4259C81.2866 94.4943 81.0033 94.5744 80.6335 93.6688C80.4148 93.1346 80.3047 92.51 80.3032 91.9335C80.3018 91.0323 78.8927 91.0323 78.8942 91.9335H78.8927Z" fill="#222222"/>
<path id="Vector_8" d="M22.7638 94.0401C22.8151 95.1538 22.868 96.2689 22.9194 97.3826C22.9296 97.6126 23.0412 97.882 23.2672 97.9853C29.4508 100.824 37.7155 100.526 44.3556 100.74C51.2627 100.962 58.9698 101.482 65.7595 99.875C66.0868 99.7978 66.2453 99.5067 66.2761 99.201C66.4068 97.9431 66.4581 96.7246 66.2512 95.474C66.1029 94.5874 64.7467 94.9645 64.8921 95.8453C64.9449 96.1612 65.052 98.607 65.1196 98.591C64.4943 98.7395 63.8485 98.8195 63.21 98.8981C61.7085 99.0845 60.1924 99.1733 58.6821 99.2534C54.4007 99.4819 50.1061 99.4732 45.8203 99.3815C41.3746 99.2854 36.9274 99.0423 32.5066 98.5662C30.7115 98.3726 28.9238 98.1062 27.1552 97.7408C26.4507 97.5937 25.7565 97.4103 25.0696 97.1992C23.8029 96.8105 24.2241 95.1771 24.1713 94.0386C24.1302 93.1418 22.7212 93.1375 22.7638 94.0386V94.0401Z" fill="#222222"/>
<path id="Vector_9" d="M45.4798 37.416C42.7249 42.2027 41.1647 47.3884 40.811 52.8884C40.7655 53.5931 41.8678 53.5887 41.9133 52.8884C42.2552 47.5747 43.7685 42.5929 46.4309 37.9692C46.7832 37.3563 45.8321 36.8045 45.4798 37.4174V37.416Z" fill="#222222"/>
<path id="Vector_10" d="M40.6304 53.0092C40.491 54.3588 42.3183 54.8232 43.0772 53.842C43.8991 52.7778 43.1432 51.4544 42.0615 50.958C41.4201 50.6639 40.8609 51.6058 41.5052 51.9028C41.9323 52.0979 42.333 52.3934 42.3198 52.9015C42.3095 53.3179 41.6828 53.4795 41.7312 53.0092C41.8046 52.309 40.7009 52.3163 40.629 53.0092H40.6304Z" fill="#222222"/>
<path id="Vector_11" d="M46.3208 37.9502C48.248 41.4719 49.0493 45.2512 48.7499 49.2416C48.6971 49.9462 49.7994 49.9418 49.8522 49.2416C50.1648 45.0619 49.2871 41.0803 47.2719 37.3999C46.9329 36.7798 45.9818 37.3315 46.3208 37.9517V37.9502Z" fill="#222222"/>
<path id="Vector_12" d="M48.8028 49.0101C48.1379 49.6973 47.7651 50.5227 47.6389 51.4603C47.5904 51.8228 48.0968 52.1474 48.3742 52.2697C48.7631 52.44 49.155 52.456 49.5689 52.3847C50.3586 52.2493 50.8561 51.5229 50.8767 50.7658C50.8972 49.9884 50.3542 49.3013 49.6364 49.0509C48.9657 48.815 48.678 49.8719 49.3444 50.1049C49.7539 50.249 49.8772 50.7847 49.6643 51.1269C49.428 51.5083 48.8101 51.3423 48.5782 51.0745C48.6325 51.204 48.6854 51.3321 48.7397 51.4603C48.8248 50.8241 49.136 50.2417 49.5807 49.7831C50.0738 49.2751 49.2945 48.5006 48.7998 49.0101H48.8028Z" fill="#222222"/>
<path id="Vector_13" d="M58.7716 85.7783C56.5113 82.7473 55.0069 79.4367 54.2246 75.7433C54.1747 75.5104 53.9252 75.3372 53.6918 75.3415C48.0718 75.4478 42.4504 75.5555 36.8305 75.6618C36.5619 75.6676 36.3946 75.8307 36.2992 76.0636C35.2145 78.7088 33.8363 81.1357 32.147 83.4461C31.1122 84.8611 30.8686 84.6093 30.8686 85.9399V92.146C30.8686 92.4023 31.0403 92.5901 31.2737 92.673C33.2507 93.3733 35.4185 93.6907 37.4895 93.9585C42.8409 94.6544 48.3405 94.9499 53.6903 94.1114C55.0597 93.8959 57.6077 93.599 58.685 92.5318C59.1679 92.0529 58.8465 90.4689 58.8465 89.8968V86.052C58.8465 85.3474 57.7442 85.3474 57.7442 86.052V91.9117C57.7442 92.4256 58.2462 91.5477 57.8866 91.7471C57.6591 91.8738 57.4154 91.9757 57.1747 92.0732C56.1488 92.4882 55.0582 92.7357 53.9751 92.9526C47.0811 94.3429 38.7782 93.7241 32.0222 91.7617C31.1724 91.5157 31.9708 92.3804 31.9708 91.7239V85.2688C31.9708 84.9892 33.509 83.4344 33.6661 83.2219C34.4219 82.1868 35.0663 81.0775 35.6915 79.9608C36.1803 79.0873 36.6191 78.1658 36.9978 77.2414C37.3912 76.2805 40.265 76.6896 41.0458 76.675C43.8565 76.6212 46.6658 76.5673 49.4765 76.5135C50.1135 76.5018 53.1531 75.9981 53.3542 76.9487C53.614 78.1731 54.0426 79.3552 54.4902 80.5199C55.2946 82.6148 56.4805 84.5321 57.819 86.3271C58.2373 86.8876 59.1943 86.3431 58.7716 85.7754V85.7783Z" fill="#222222"/>
<path id="Vector_14" d="M31.4234 89.2126C32.2013 90.7455 33.2478 92.0951 34.5423 93.235C34.896 93.5451 35.4171 93.0326 35.0619 92.7196C33.8114 91.619 32.8089 90.3263 32.0574 88.8457C31.8446 88.425 31.2106 88.7947 31.4234 89.214V89.2126Z" fill="#222222"/>
<path id="Vector_15" d="M31.1254 86.7784C32.6196 88.9971 34.3192 91.0498 36.2258 92.9307C36.5619 93.2627 37.0815 92.7473 36.7454 92.4154C34.8813 90.5767 33.2199 88.5778 31.7595 86.4101C31.4982 86.0214 30.8612 86.3854 31.1254 86.7784Z" fill="#222222"/>
<path id="Vector_16" d="M31.692 84.832C33.9361 88.3027 36.6397 91.4007 39.7894 94.0954C40.1461 94.3997 40.6686 93.8872 40.309 93.58C37.2062 90.9246 34.5393 87.8849 32.3275 84.4637C32.0721 84.0692 31.4366 84.4331 31.6934 84.832H31.692Z" fill="#222222"/>
<path id="Vector_17" d="M3.77867 86.2849C3.23267 87.4554 2.6852 88.6273 2.13921 89.7978C1.84273 90.4325 2.79381 90.9887 3.09176 90.3496C3.63776 89.1791 4.18523 88.0086 4.73123 86.8367C5.02771 86.2019 4.07809 85.6458 3.77867 86.2849Z" fill="#222222"/>
<path id="Vector_18" d="M5.75274 87.9562C5.34031 89.0175 4.92936 90.0788 4.51693 91.1401C4.26007 91.7981 5.32711 92.0806 5.57956 91.4298C5.99199 90.3685 6.40295 89.3072 6.81538 88.2459C7.07077 87.5864 6.00519 87.304 5.75274 87.9548V87.9562Z" fill="#222222"/>
<path id="Vector_19" d="M8.09233 88.7322C7.83695 89.7949 7.58156 90.8577 7.32618 91.9204C7.16179 92.6061 8.22443 92.8973 8.38882 92.2116C8.6442 91.1488 8.89958 90.0846 9.15497 89.0233C9.31935 88.3376 8.25672 88.0465 8.09233 88.7322Z" fill="#222222"/>
<path id="Vector_20" d="M24.9727 94.9485C25.0138 95.9617 25.0534 96.975 25.0945 97.9868C25.1224 98.6885 26.2247 98.6914 26.1968 97.9868C26.1557 96.9735 26.1161 95.9603 26.075 94.9485C26.0471 94.2468 24.9448 94.2439 24.9727 94.9485Z" fill="#222222"/>
<path id="Vector_21" d="M27.9404 95.5236C28.1768 96.3825 28.2531 97.2603 28.1298 98.144C28.0329 98.8326 29.0956 99.1311 29.1924 98.4352C29.3436 97.3492 29.2952 96.2937 29.0031 95.2339C28.8167 94.5554 27.7526 94.8422 27.9404 95.525V95.5236Z" fill="#222222"/>
<path id="Vector_22" d="M31.871 95.5832C31.2237 96.9313 31.1137 98.4061 31.6303 99.8182C31.8695 100.476 32.9351 100.191 32.6929 99.5271C32.2805 98.3974 32.2996 97.2254 32.8236 96.1335C33.1274 95.5003 32.1778 94.9456 31.871 95.5818V95.5832Z" fill="#222222"/>
<path id="Vector_23" d="M35.8104 96.7814C35.4992 97.8369 35.5359 98.936 35.941 99.9609C36.1979 100.609 37.2649 100.328 37.0037 99.6697C36.6646 98.8137 36.6118 97.9562 36.873 97.0711C37.0727 96.3927 36.0085 96.1044 35.8104 96.7799V96.7814Z" fill="#222222"/>
<path id="Vector_24" d="M38.8442 97.0755V99.5052C38.8442 100.21 39.9465 100.21 39.9465 99.5052V97.0755C39.9465 96.3708 38.8442 96.3708 38.8442 97.0755Z" fill="#222222"/>
<path id="Vector_25" d="M42.1936 97.5326C42.245 98.2416 42.2978 98.9491 42.3492 99.6596C42.402 100.358 43.5043 100.363 43.4529 99.6596C43.4001 98.9506 43.3472 98.243 43.2958 97.5326C43.2445 96.8338 42.1407 96.8294 42.1936 97.5326Z" fill="#222222"/>
<path id="Vector_26" d="M45.4358 97.5311C45.5371 98.2896 45.6384 99.0495 45.7396 99.8095C45.7793 100.105 45.9613 100.357 46.2915 100.357C46.5616 100.357 46.883 100.106 46.8434 99.8095C46.7406 99.0495 46.6393 98.2896 46.5395 97.5311C46.5014 97.2356 46.3179 96.9837 45.9877 96.9837C45.7176 96.9837 45.3962 97.2341 45.4358 97.5311Z" fill="#222222"/>
<path id="Vector_27" d="M48.7705 97.534C48.8145 98.0916 48.8571 98.6477 48.9011 99.2068C48.9554 99.9041 50.0592 99.9099 50.0034 99.2068C49.9593 98.6492 49.9168 98.0916 49.8728 97.534C49.8185 96.8367 48.7162 96.8309 48.7705 97.534Z" fill="#222222"/>
<path id="Vector_28" d="M53.2647 97.0871C52.9168 97.9242 53.0049 98.8545 53.4452 99.6391C53.7916 100.255 54.7441 99.7032 54.3978 99.0874C54.0881 98.5356 54.0881 97.9533 54.3288 97.3783C54.4433 97.1031 54.2055 96.7785 53.9428 96.7057C53.6257 96.6198 53.3806 96.812 53.2647 97.0871Z" fill="#222222"/>
<path id="Vector_29" d="M58.1331 96.6241C57.9409 97.6985 57.9879 98.7555 58.3122 99.8007C58.5206 100.473 59.5847 100.187 59.3763 99.5096C59.1121 98.6579 59.0402 97.7946 59.1973 96.9138C59.3205 96.2238 58.2579 95.9297 58.1346 96.6227L58.1331 96.6241Z" fill="#222222"/>
<path id="Vector_30" d="M62.3969 96.3184C62.6039 97.4321 62.8108 98.5444 63.0178 99.6581C63.1469 100.351 64.2096 100.057 64.0819 99.3669C63.8749 98.2547 63.6665 97.141 63.461 96.0273C63.3319 95.3357 62.2692 95.6284 62.3969 96.3184Z" fill="#222222"/>
<path id="Vector_31" d="M81.4011 92.6731C81.316 93.6208 81.5126 94.5307 81.9398 95.378C82.2568 96.0083 83.2064 95.4551 82.8908 94.8262C82.5489 94.1478 82.4358 93.4272 82.5048 92.6731C82.5679 91.9713 81.4642 91.9772 81.4026 92.6731H81.4011Z" fill="#222222"/>
<path id="Vector_32" d="M83.6027 92.3513C83.8404 93.1156 84.0797 93.8799 84.3189 94.6442C84.5288 95.3154 85.5929 95.0286 85.3816 94.3531C85.1438 93.5888 84.9045 92.8245 84.6653 92.0602C84.4554 91.389 83.3913 91.6758 83.6027 92.3513Z" fill="#222222"/>
<path id="Vector_33" d="M85.841 91.0032C85.8762 92.0907 86.2035 93.1185 86.8346 94.0124C87.2397 94.5845 88.1967 94.0401 87.7872 93.4606C87.2647 92.7211 86.9726 91.9073 86.9432 91.0032C86.9212 90.2986 85.8175 90.2986 85.841 91.0032Z" fill="#222222"/>
<path id="Vector_34" d="M42.2743 5.89313C42.2743 5.89313 42.1202 6.00523 41.8413 6.18721C41.5566 6.37064 41.1882 6.62686 40.7508 6.96025C40.5292 7.11893 40.3046 7.3111 40.0639 7.50472C39.8188 7.69398 39.5928 7.93128 39.3359 8.14383C39.0952 8.37676 38.8486 8.61842 38.6094 8.87319C38.3584 9.11631 38.1383 9.39583 37.9049 9.66225C37.6862 9.94031 37.4513 10.2067 37.2576 10.4979C37.0521 10.7803 36.8584 11.0642 36.6749 11.3437C36.512 11.6334 36.3227 11.8998 36.1803 12.1735C36.035 12.4458 35.8867 12.6991 35.7723 12.9466C35.5257 13.4328 35.3393 13.855 35.2131 14.1564C35.0868 14.4577 35.0046 14.6324 35.0046 14.6324C35.0046 14.6324 34.9958 14.4446 34.9988 14.1112C34.9988 13.9438 35.0105 13.7415 35.0428 13.5114C35.0663 13.28 35.103 13.0179 35.1749 12.7399C35.2307 12.456 35.3173 12.1561 35.4288 11.8445C35.5286 11.5286 35.6725 11.2083 35.8251 10.8793C35.9983 10.5619 36.1539 10.2169 36.377 9.90537C36.5795 9.58072 36.8232 9.27791 37.0565 8.96636C37.3207 8.68102 37.5746 8.38549 37.8579 8.12781C38.1236 7.85266 38.4362 7.63429 38.718 7.40573C39.0145 7.19463 39.3036 6.99518 39.5972 6.8365C39.8849 6.66908 40.1652 6.52786 40.4352 6.42013C40.695 6.29784 40.9504 6.21195 41.1779 6.14352C41.401 6.06637 41.5977 6.01688 41.7606 5.98776C42.0865 5.92225 42.2758 5.89458 42.2758 5.89458L42.2743 5.89313Z" fill="#222222"/>
<path id="Vector_35" d="M33.9919 17.9444C33.9919 17.9444 34.1049 18.1409 34.1754 18.3418C34.2561 18.5529 34.2913 18.7786 34.2664 18.9911C34.2385 19.2037 34.1504 19.4133 34.0183 19.5982C33.9009 19.7787 33.7409 19.9374 33.7409 19.9374C33.7409 19.9374 33.534 19.8442 33.3872 19.6462C33.2228 19.4497 33.1362 19.1498 33.1729 18.8557C33.2111 18.5646 33.371 18.2923 33.578 18.1424C33.7717 17.9808 33.9919 17.9458 33.9919 17.9458V17.9444Z" fill="#222222"/>
<path id="Vector_36" d="M6.14023 76.7071C6.14023 76.7071 6.11528 76.8381 6.05363 77.0565C5.99493 77.2676 5.91126 77.5689 5.81146 77.9314C5.61478 78.6462 5.3682 79.5649 5.17006 80.4922C4.97191 81.4196 4.82514 82.3586 4.71213 83.0909C4.65635 83.4635 4.60939 83.7722 4.57564 83.9891C4.54041 84.2104 4.51105 84.3429 4.51105 84.3429C4.51105 84.3429 4.4494 84.2264 4.3584 84.0153C4.26887 83.8057 4.15586 83.497 4.07954 83.1156C3.98561 82.7342 3.94158 82.2785 3.93277 81.7908C3.93277 81.3016 3.98707 80.7805 4.09128 80.268C4.20576 79.757 4.36868 79.2591 4.56976 78.8122C4.77671 78.3682 5.0042 77.9707 5.24491 77.6592C5.46948 77.3418 5.70284 77.0958 5.86723 76.9458C6.03455 76.7915 6.14023 76.71 6.14023 76.71V76.7071Z" fill="#222222"/>
<path id="Vector_37" d="M65.0329 84.0415C65.0329 84.0415 65.1166 84.1638 65.2443 84.3836C65.3676 84.5976 65.5378 84.9339 65.6802 85.3416C65.8402 85.7492 65.9635 86.2442 66.056 86.7828C66.1396 87.3215 66.1763 87.9067 66.1587 88.489C66.1308 89.0714 66.0516 89.6508 65.9268 90.1822C65.7932 90.7121 65.6332 91.1969 65.441 91.5914C65.2678 91.9903 65.0755 92.3033 64.9317 92.5144C64.7864 92.7255 64.6954 92.8405 64.6954 92.8405C64.6954 92.8405 64.7012 92.692 64.7262 92.4416C64.7511 92.197 64.7878 91.8476 64.8319 91.4269C64.9155 90.5971 65.0168 89.5241 65.0579 88.4483C65.099 87.3724 65.0814 86.2937 65.0608 85.4609C65.0491 85.0388 65.0403 84.6879 65.0329 84.4419C65.0256 84.19 65.0315 84.0415 65.0315 84.0415H65.0329Z" fill="#222222"/>
<path id="Vector_38" d="M64.6543 78.8544C64.6543 78.8544 64.8392 78.9403 64.9698 79.067C65.1166 79.1951 65.2047 79.3669 65.2061 79.5372C65.2061 79.7075 65.1181 79.8793 64.9713 80.0074C64.8392 80.1355 64.6543 80.2214 64.6543 80.2214C64.6543 80.2214 64.4693 80.1355 64.3387 80.0074C64.1919 79.8793 64.1039 79.7075 64.1039 79.5372C64.1053 79.3669 64.1934 79.1951 64.3387 79.067C64.4693 78.9389 64.6543 78.8544 64.6543 78.8544Z" fill="#222222"/>
</g>
</g>
</g>
</svg>
