<svg width="51" height="29" viewBox="0 0 51 29" fill="none" xmlns="http://www.w3.org/2000/svg">
<rect width="51" height="29" fill="#1E1E1E"/>
<rect width="390" height="844" transform="translate(-71 -237)" fill="#FAFAFB"/>
<rect x="-71" y="-129" width="390" height="229" fill="#F7F7F7"/>
<path d="M40.3947 0.0287962C34.6793 1.12844 28.7845 1.42149 22.9736 1.5332C17.4772 1.6391 11.3266 1.81609 6.06113 0.0287962C5.77882 -0.0669515 5.39799 0.0853762 5.26418 0.347957C4.40989 2.02644 3.72762 3.8529 4.007 5.7461C4.10698 6.42649 3.35268 7.52758 3.08948 8.20362C2.53955 9.62243 2.18519 11.1167 1.84406 12.5935C0.869187 16.8267 0.325143 21.2108 0.00165727 25.5398C-0.0233394 25.8633 0.238388 26.1099 0.519233 26.2114C7.15069 28.6051 14.6806 29.1419 21.6649 28.9591C21.9708 28.9519 22.2722 28.7546 22.3457 28.4485C23.0868 25.3526 23.1897 22.0464 23.4206 18.8824H22.0105C22.1957 22.0247 22.2839 25.7487 23.7161 28.6153C23.8264 28.8358 24.0881 28.9519 24.3248 28.9591C31.2445 29.2043 38.4612 28.3542 45.0632 26.2114C45.3529 26.1171 45.5955 25.8589 45.5808 25.5398C45.1882 17.127 44.2192 8.45025 41.2608 0.516241C40.9491 -0.319375 39.586 0.0418532 39.9007 0.886174C42.8047 8.67511 43.7472 17.1604 44.1648 25.4295C44.1486 25.1016 45.1044 24.7477 44.1133 25.048C43.1973 25.3251 42.268 25.5601 41.3372 25.7907C37.948 26.6264 34.4897 27.1486 31.0122 27.4504C29.1698 27.6099 27.3186 27.6332 25.4703 27.6099C24.1484 27.594 24.1366 25.2134 23.9822 24.295C23.6823 22.5107 23.5264 20.6885 23.4206 18.8839C23.3676 17.983 22.0751 17.9902 22.0105 18.8839C21.9208 20.1112 21.8164 21.3356 21.7046 22.5614C21.6237 23.4565 21.5296 24.3502 21.4311 25.2438C21.3708 25.7777 21.3017 26.3101 21.2253 26.8425C21.0973 27.7318 21.3032 27.578 20.518 27.5983C15.0629 27.7405 9.5636 27.1167 4.26579 25.8444C3.20564 25.5891 2.15284 25.2917 1.11915 24.9464C0.513354 24.7448 1.39706 25.7545 1.42353 25.4223C1.45587 25.0146 1.49263 24.6069 1.52939 24.1993C1.87641 20.4289 2.40427 16.6686 3.2071 12.9649C3.63205 11.005 4.17021 9.03924 5.03186 7.21858C5.76558 5.66631 5.24507 4.34325 5.78617 2.67782C5.94056 2.24115 6.11701 1.81319 6.31551 1.39393C6.53166 1.00658 6.46255 1.0472 6.11112 1.51579C6.93895 1.79723 7.8109 1.95971 8.66961 2.12074C10.487 2.46021 12.3456 2.61544 14.188 2.746C22.928 3.36546 32.1576 3.03034 40.7712 1.37217C41.6637 1.20098 41.2858 -0.140937 40.3962 0.0302483L40.3947 0.0287962Z" fill="#222222"/>
<path d="M5.46267 5.3486C10.8737 6.92263 16.3862 7.7539 22.0251 7.85545C22.7368 7.86851 22.7368 6.77901 22.0251 6.76595C16.4847 6.66731 11.0693 5.8433 5.75675 4.29828C5.07155 4.09953 4.78188 5.1513 5.46267 5.3486Z" fill="#222222"/>
<path d="M21.8193 3.31904C21.7429 5.5488 21.2459 8.18041 21.7531 10.3666C22.0178 11.5069 23.425 11.7913 24.2131 11.0673C24.7351 10.5872 23.9529 9.81972 23.4323 10.297C22.6354 11.0296 22.7457 8.48216 22.7471 8.4633C22.7662 7.89172 22.7868 7.32013 22.806 6.74854C22.8457 5.60537 22.8839 4.46221 22.9236 3.31904C22.9471 2.61689 21.8428 2.61834 21.8193 3.31904Z" fill="#222222"/>
<path d="M24.7851 7.81482C30.5916 7.81047 36.3041 7.10687 41.9342 5.70257C42.6238 5.52993 42.3312 4.4796 41.6401 4.65224C36.1071 6.03043 30.4916 6.72097 24.7851 6.72533C24.0734 6.72533 24.0734 7.81627 24.7851 7.81482Z" fill="#222222"/>
<path d="M24.5704 8.89271V2.5371C24.5704 1.83495 23.4661 1.83495 23.4661 2.5371V8.89271C23.4661 9.59486 24.5704 9.59486 24.5704 8.89271Z" fill="#222222"/>
<path d="M1.48527 21.8129C8.07555 23.7815 14.8526 24.4909 21.7149 23.9251C22.4192 23.8671 22.4251 22.7776 21.7149 22.8356C14.9511 23.3941 8.277 22.7021 1.77935 20.7625C1.09562 20.558 0.805949 21.6098 1.48527 21.8129Z" fill="#222222"/>
<path d="M23.7132 24.2907C30.8093 23.9614 37.8774 23.4435 44.703 21.3733C45.3808 21.1673 45.0912 20.1155 44.4089 20.323C37.6789 22.3641 30.7093 22.8777 23.7132 23.2026C23.0044 23.236 23.0015 24.324 23.7132 24.2921V24.2907Z" fill="#222222"/>
<path d="M35.96 6.61072C37.8598 8.9609 40.2359 10.8019 42.9988 12.0698C43.5325 12.315 44.0001 11.533 43.4634 11.2864C40.7653 10.0489 38.4656 8.2631 36.6099 5.96951C36.2394 5.51253 35.5939 6.1581 35.96 6.61218V6.61072Z" fill="#222222"/>
<path d="M3.58353 11.5766C6.31992 10.8904 8.96957 8.91303 10.3885 6.50628C10.687 5.99997 9.8915 5.543 9.59448 6.04785C8.29172 8.25875 5.85087 10.0721 3.33945 10.7003C2.76452 10.8439 3.00861 11.7202 3.58353 11.5751V11.5766Z" fill="#222222"/>
<path d="M1.56469 18.9622C2.15431 20.1779 3.0042 21.2282 4.07611 22.0624C4.44518 22.3496 4.97011 21.839 4.59663 21.5488C3.56883 20.748 2.766 19.763 2.1999 18.5966C1.99551 18.1744 1.3603 18.5429 1.56469 18.9636V18.9622Z" fill="#222222"/>
<path d="M1.81463 16.6251C3.49823 18.7257 5.18183 20.8264 6.86542 22.927C7.1595 23.294 7.67708 22.7761 7.38594 22.4135C5.70234 20.3128 4.01875 18.2122 2.33515 16.1115C2.04107 15.7445 1.52349 16.2624 1.81463 16.6251Z" fill="#222222"/>
<path d="M2.17784 13.5162C4.43489 17.1343 7.08306 20.5594 10.0209 23.6669C10.3459 24.0093 10.8649 23.4957 10.5414 23.1533C7.64475 20.0894 5.03922 16.7179 2.81305 13.1506C2.56455 12.7531 1.92787 13.1172 2.17784 13.5176V13.5162Z" fill="#222222"/>
<path d="M45.8396 2.11638C45.8396 2.11638 46.2175 2.73003 46.6233 3.70782C46.8321 4.19381 47.0453 4.7712 47.2467 5.39791C47.3394 5.71272 47.4526 6.03478 47.5349 6.3699C47.6202 6.70357 47.707 7.04303 47.7937 7.3825C47.8628 7.72632 47.9334 8.06869 48.0011 8.40671C48.0746 8.74328 48.1099 9.08275 48.1628 9.40626C48.254 10.0576 48.3128 10.6684 48.3348 11.1965C48.3922 12.2511 48.3157 12.9663 48.3157 12.9663C48.3157 12.9663 48.0246 12.3063 47.7099 11.3067C47.5482 10.8077 47.3747 10.223 47.2085 9.59485C47.1291 9.28005 47.0306 8.95799 46.9571 8.62577C46.8777 8.29501 46.7968 7.95844 46.7159 7.62187C46.5718 6.94438 46.4189 6.2698 46.3042 5.63003C46.1822 4.99171 46.0837 4.39111 46.0131 3.87175C45.8631 2.83594 45.8381 2.11638 45.8381 2.11638H45.8396Z" fill="#222222"/>
<path d="M50.067 3.29727C50.067 3.29727 50.2905 3.59612 50.4816 4.06181C50.6889 4.52604 50.858 5.1571 50.9419 5.79977C51.0227 6.44244 51.0183 7.09527 50.9345 7.59576C50.8669 8.09336 50.7228 8.43719 50.7228 8.43719C50.7228 8.43719 50.4978 8.13833 50.3052 7.67265C50.0978 7.20842 49.9302 6.57736 49.8464 5.93469C49.7655 5.29202 49.7714 4.63774 49.8552 4.13869C49.9229 3.6411 50.0655 3.29727 50.0655 3.29727H50.067Z" fill="#222222"/>
</svg>
