<svg width="20" height="20" viewBox="0 0 20 20" fill="none" xmlns="http://www.w3.org/2000/svg">
<g id="notification-bing">
<g id="vuesax/linear/notification-bing">
<g id="notification-bing_2">
<path id="Vector" d="M10.0167 1.66663C6.95004 1.66663 4.4667 4.14996 4.4667 7.21663V8.96663C4.4667 9.53329 4.23337 10.3833 3.9417 10.8666L2.88337 12.6333C2.23337 13.725 2.68337 14.9416 3.88337 15.3416C7.8667 16.6666 12.175 16.6666 16.1584 15.3416C17.2834 14.9666 17.7667 13.65 17.1584 12.6333L16.1 10.8666C15.8084 10.3833 15.575 9.52496 15.575 8.96663V7.21663C15.5667 4.16663 13.0667 1.66663 10.0167 1.66663Z" stroke="#303030" stroke-width="1.5" stroke-miterlimit="10" stroke-linecap="round"/>
<path id="Vector_2" d="M12.775 15.6833C12.775 17.2083 11.525 18.4583 9.99998 18.4583C9.24164 18.4583 8.54164 18.1417 8.04164 17.6417C7.54164 17.1417 7.22498 16.4417 7.22498 15.6833" stroke="#303030" stroke-width="1.5" stroke-miterlimit="10"/>
</g>
</g>
</g>
</svg>
