<svg width="20" height="20" viewBox="0 0 20 20" fill="none" xmlns="http://www.w3.org/2000/svg">
<g id="icon/outline/keyboard">
<g id="vuesax/outline/keyboard">
<g id="keyboard">
<path id="Vector" d="M4.8487 16.7138L4.83884 16.7124L4.82894 16.7113C3.54771 16.5724 2.88517 16.1368 2.50657 15.5134C2.1005 14.8448 1.95837 13.8662 1.95837 12.5V7.50004C1.95837 6.13387 2.10055 5.15586 2.5091 4.4866C2.89048 3.86186 3.5595 3.42343 4.85493 3.28035L4.85495 3.28051L4.8676 3.27879C5.20283 3.23308 5.63617 3.20837 6.25004 3.20837H13.75C14.3638 3.20837 14.7945 3.2331 15.1514 3.28625L15.1612 3.28772L15.1711 3.28879C16.4524 3.42772 17.1149 3.86327 17.4935 4.48667C17.8996 5.15528 18.0417 6.13392 18.0417 7.50004V12.5C18.0417 13.8662 17.8995 14.8442 17.491 15.5135C17.1096 16.1382 16.4406 16.5767 15.1451 16.7197L15.1451 16.7196L15.1325 16.7213C14.7972 16.767 14.3639 16.7917 13.75 16.7917H6.25004C5.63624 16.7917 5.20555 16.767 4.8487 16.7138ZM6.25004 3.45837C5.67105 3.45837 5.24971 3.4838 4.89846 3.52863C4.03462 3.62681 3.27352 3.82373 2.78978 4.51274C2.33855 5.15544 2.20837 6.12632 2.20837 7.50004V12.5C2.20837 13.8742 2.33875 14.8437 2.78546 15.4856C3.26462 16.1742 4.01772 16.3725 4.86951 16.471C5.25366 16.5253 5.68047 16.5417 6.25004 16.5417H13.75C14.3284 16.5417 14.7494 16.5163 15.1004 16.4716C15.9655 16.3774 16.7267 16.1806 17.2106 15.4901C17.6615 14.8465 17.7917 13.8738 17.7917 12.5V7.50004C17.7917 6.12589 17.6613 5.15642 17.2146 4.51446C16.7355 3.82584 15.9824 3.62763 15.1306 3.52909C14.7464 3.47474 14.3196 3.45837 13.75 3.45837H6.25004Z" fill="#303030" stroke="#303030"/>
<path id="Vector_2" d="M14.1667 8.45837H11.25C11.2199 8.45837 11.1886 8.44609 11.1629 8.42045C11.1373 8.3948 11.125 8.36352 11.125 8.33337C11.125 8.30323 11.1373 8.27195 11.1629 8.2463C11.1886 8.22066 11.2199 8.20837 11.25 8.20837H14.1667C14.1968 8.20837 14.2281 8.22066 14.2537 8.2463C14.2794 8.27195 14.2917 8.30323 14.2917 8.33337C14.2917 8.36352 14.2794 8.3948 14.2537 8.42045C14.2281 8.44609 14.1968 8.45837 14.1667 8.45837Z" fill="#303030" stroke="#303030"/>
<path id="Vector_3" d="M8.41671 8.66667C8.23452 8.66667 8.08337 8.51552 8.08337 8.33333C8.08337 8.14787 8.22944 8 8.41671 8H8.42504C8.60723 8 8.75837 8.15114 8.75837 8.33333C8.75837 8.51229 8.61048 8.66667 8.41671 8.66667Z" fill="#303030" stroke="#303030"/>
<path id="Vector_4" d="M5.91671 8.66667C5.73452 8.66667 5.58337 8.51552 5.58337 8.33333C5.58337 8.14787 5.72944 8 5.91671 8C6.0989 8 6.25004 8.15114 6.25004 8.33333C6.25004 8.51879 6.10398 8.66667 5.91671 8.66667Z" fill="#303030" stroke="#303030"/>
<path id="Vector_5" d="M14.1667 13.5416H5.85001C5.50834 13.5416 5.21667 13.2583 5.21667 12.9166C5.21667 12.575 5.49167 12.2916 5.83334 12.2916H14.1667C14.5083 12.2916 14.7917 12.575 14.7917 12.9166C14.7917 13.2583 14.5083 13.5416 14.1667 13.5416Z" fill="#303030"/>
</g>
</g>
</g>
</svg>
