<svg width="61" height="72" viewBox="0 0 61 72" fill="none" xmlns="http://www.w3.org/2000/svg">
<path d="M27.3875 10.8093C24.5719 9.5247 20.4435 10.9481 18.8847 13.5987C19.3606 13.728 19.8382 13.8572 20.3141 13.9849C20.5536 11.355 19.276 2.63579 22.5308 2.01663C26.1274 1.33365 30.0594 1.62728 33.6943 1.73101C37.0035 1.82675 40.394 1.9209 43.6632 2.4842C46.2122 2.92304 45.2955 12.6077 45.3945 14.7764C45.8704 14.6471 46.3463 14.5179 46.8223 14.3902C45.2044 11.1093 41.9448 9.55184 38.369 10.1391C37.3964 10.3002 37.81 11.7763 38.7762 11.6168C41.7021 11.1364 44.2062 12.5423 45.4999 15.1625C45.8369 15.8471 46.9612 15.52 46.9276 14.7764C46.7871 11.7029 46.8111 8.6247 46.5699 5.55605C46.4693 4.28582 46.4438 2.04855 45.1517 1.31929C44.1056 0.73045 42.4926 0.770357 41.3347 0.653866C38.797 0.396948 36.2433 0.28523 33.6943 0.200655C29.724 0.0682065 25.0798 -0.384994 21.2085 0.755978C19.7232 1.19322 19.4405 2.96293 19.2409 4.27944C18.7538 7.47575 19.0747 10.7662 18.7809 13.9849C18.709 14.7716 19.8446 14.9918 20.2087 14.371C21.2915 12.5295 24.5751 11.2019 26.6145 12.1322C27.5073 12.5391 28.2851 11.2194 27.3875 10.8109V10.8093Z" fill="#222222"/>
<path d="M21.5119 1.28896C20.4195 5.45709 24.8194 9.14011 26.6928 12.4896C29.7448 17.9439 31.0305 24.2584 30.9091 30.4627C30.8404 33.9989 30.3437 37.5766 30.0626 41.1001C29.2769 50.981 28.4895 60.8604 27.7038 70.7414C27.6255 71.726 29.1587 71.7196 29.2369 70.7414C30.0083 61.0583 30.7781 51.3752 31.5479 41.6905C31.845 37.966 32.1404 34.2415 32.4375 30.5186C32.7968 26.0089 31.7906 21.2727 30.3645 17.0264C29.6282 14.837 28.5965 12.7497 27.4706 10.7375C26.07 8.23372 22.1555 4.88739 22.9924 1.69587C23.2415 0.738408 21.7642 0.333096 21.5135 1.28896H21.5119Z" fill="#222222"/>
<path d="M41.6765 1.68953C42.2419 7.35289 36.7527 10.7343 33.9179 14.9695C32.3288 17.344 30.3309 20.5036 30.4571 23.4829C30.4986 24.4675 32.0318 24.4706 31.9903 23.4829C31.829 19.6897 35.3553 15.2376 37.7413 12.5599C40.5969 9.35558 43.6697 6.30767 43.2097 1.68953C43.1123 0.716112 41.5791 0.706538 41.6765 1.68953Z" fill="#222222"/>
<path d="M18.8991 3.11293C11.5749 11.3854 5.28089 20.4429 0.0999903 30.2026C-0.0629109 30.5106 -0.0293724 30.8776 0.219771 31.1298C3.03221 33.9942 5.69774 36.3479 9.53869 37.6931C10.4746 38.0219 10.8723 36.541 9.94595 36.2171C6.70709 35.0809 4.37057 33.1532 1.99413 30.75C1.08061 29.826 6.05068 22.8653 6.6991 21.8281C10.6023 15.5774 15.0981 9.71142 19.9819 4.19646C20.6335 3.45922 19.5539 2.37249 18.8975 3.11293H18.8991Z" fill="#222222"/>
<path d="M11.7155 23.5961C9.92355 31.3276 8.88386 39.2378 7.92402 47.1097C7.13826 53.5486 6.22474 60.12 6.17204 66.618C6.17044 66.9834 6.41479 67.2339 6.73421 67.3568C14.7243 70.4159 23.3262 71.9111 31.8689 71.9973C36.3216 72.0435 40.7757 71.501 45.0878 70.4015C47.073 69.8941 48.9831 69.1536 50.8565 68.3286C52.2379 67.7206 52.1357 67.3344 52.2411 65.9142C52.7666 58.7269 52.1086 51.364 51.5911 44.1943C51.0929 37.2623 50.5227 30.2776 49.3456 23.4222C49.1796 22.4504 47.7007 22.8637 47.8684 23.8291C49.5996 33.9016 50.2208 44.2629 50.6584 54.4582C50.7638 56.9333 50.8245 59.4099 50.8245 61.8865C50.8245 63.1839 51.2573 66.4456 50.0835 67.0057C43.5531 70.1222 35.9558 70.6808 28.8329 70.3855C22.4334 70.1175 16.0467 68.852 9.96028 66.8876C9.24959 66.6578 7.70525 66.3387 7.71323 66.0147C7.72761 65.3222 7.77071 64.6312 7.81223 63.9403C7.9352 61.8817 8.11888 59.8232 8.30894 57.7694C9.34863 46.4826 10.6311 35.0537 13.1943 23.9983C13.4163 23.0376 11.939 22.6291 11.7155 23.5914V23.5961Z" fill="#222222"/>
<path d="M45.4999 5.21774C49.9988 11.7412 53.5555 18.9812 56.7848 26.2004C57.4715 27.734 60.3958 32.6824 59.3689 34.3085C57.6808 36.983 54.1976 38.7751 51.1535 39.3783C50.1841 39.5697 50.5961 41.0458 51.5592 40.8543C54.271 40.3166 56.788 38.9283 58.8753 37.157C61.9162 34.5766 61.1624 32.9138 59.8783 29.6233C56.4781 20.9121 52.1357 12.1513 46.8207 4.4454C46.2633 3.63794 44.9345 4.40231 45.4983 5.21774H45.4999Z" fill="#222222"/>
<path d="M2.81499 27.0925C4.58933 30.1053 7.41935 32.2293 10.8115 33.0878C11.4376 33.2458 11.7011 32.2819 11.0766 32.1239C7.92721 31.3276 5.3272 29.3856 3.67743 26.5882C3.35163 26.0345 2.48759 26.5356 2.81339 27.0925H2.81499Z" fill="#222222"/>
<path d="M50.4476 35.8564C54.0123 34.7968 57.1713 32.9394 59.824 30.3351C60.2856 29.8835 59.5765 29.1781 59.1165 29.6297C56.5788 32.1175 53.5875 33.8809 50.1809 34.8942C49.5644 35.0777 49.8263 36.0415 50.446 35.858L50.4476 35.8564Z" fill="#222222"/>
<path d="M43.5802 27.3717C42.5166 25.2908 39.4199 24.7706 38.0432 26.8643C36.601 29.0569 38.0384 31.7744 40.6304 31.9516C41.2741 31.9963 41.2709 30.9973 40.6304 30.9526C38.706 30.8218 37.8116 28.7202 39.0174 27.2377C40.0938 25.9164 42.0327 26.534 42.7178 27.876C43.0117 28.4489 43.8741 27.9446 43.5818 27.3717H43.5802Z" fill="#222222"/>
<path d="M40.6304 30.9526C38.3498 30.7101 36.7496 33.4037 37.6886 35.3378C38.8146 37.6549 42.1333 36.8458 42.6843 34.575C42.8344 33.9495 41.8714 33.683 41.7196 34.3101C41.3347 35.8995 39.4151 36.2266 38.551 34.8335C37.7509 33.5458 39.2873 31.8096 40.6288 31.9532C41.2693 32.0218 41.2629 31.0213 40.6288 30.9542L40.6304 30.9526Z" fill="#222222"/>
<path d="M42.0103 34.1713C41.3523 35.8548 42.721 38.1272 44.7221 37.5208C46.645 36.9383 47.1912 34.7617 45.7538 33.3383C45.3529 32.9425 44.6646 33.4548 44.968 33.9431C46.0764 35.7224 48.5039 35.4176 49.4079 33.6271C50.4204 31.6229 48.8138 29.5531 46.851 29.2499C46.2201 29.1526 45.9502 30.1149 46.5859 30.2138C47.7661 30.3957 48.5279 31.0021 48.6669 32.2675C48.8409 33.8473 46.7648 34.9388 45.8305 33.4388C45.5685 33.6415 45.3082 33.8426 45.0463 34.0436C45.9582 34.9484 45.6085 36.4149 44.2334 36.5841C43.0005 36.7357 42.6283 35.3218 42.9749 34.4378C43.2112 33.8378 42.2435 33.5792 42.0103 34.1713Z" fill="#222222"/>
<path d="M43.6776 27.7819C43.9651 26.7733 45.1885 26.2292 46.1228 26.7255C47.0746 27.2297 47.0555 28.6978 46.3639 29.3792C45.904 29.8324 46.6115 30.5377 47.0698 30.0861C48.29 28.8845 48.0456 26.7941 46.629 25.8637C45.1885 24.9175 43.149 25.9882 42.7146 27.5186C42.5373 28.1393 43.5036 28.401 43.6792 27.7835L43.6776 27.7819Z" fill="#222222"/>
<path d="M43.4285 31.1298C43.2592 26.4749 45.3354 22.1791 49.1396 19.4695C49.6603 19.0977 49.162 18.2312 48.635 18.6062C44.5465 21.5201 42.2467 26.1063 42.4287 31.1298C42.4527 31.7729 43.4508 31.7745 43.4285 31.1298Z" fill="#222222"/>
<path d="M46.7679 19.0769C46.8797 19.2605 46.9916 19.4456 47.1049 19.6291C47.3733 20.0695 48.0632 19.6674 47.7949 19.2254C47.6831 19.0418 47.5713 18.8567 47.4579 18.6716C47.1896 18.2328 46.4996 18.6333 46.7679 19.0753V19.0769Z" fill="#222222"/>
<path d="M45.4472 19.8461C45.5957 20.1413 45.7442 20.4365 45.8912 20.7334C46.1211 21.1945 46.8111 20.7892 46.5811 20.3296C46.4326 20.0328 46.284 19.7376 46.1371 19.4424C45.9071 18.9812 45.2156 19.3865 45.4472 19.8461Z" fill="#222222"/>
<path d="M44.0673 21.702C44.2526 21.9254 44.4363 22.1456 44.6231 22.3674C44.9521 22.7648 45.5159 22.1951 45.1885 21.8025C45.0032 21.5807 44.818 21.3589 44.6327 21.1355C44.3021 20.7397 43.7383 21.3078 44.0673 21.7004V21.702Z" fill="#222222"/>
<path d="M46.6609 22.961C46.3272 22.7759 45.995 22.5908 45.6612 22.4057C45.2092 22.1552 44.8067 22.8461 45.2571 23.0967C45.5893 23.2802 45.9231 23.4653 46.2569 23.6504C46.7073 23.9009 47.1113 23.21 46.6609 22.961Z" fill="#222222"/>
<path d="M47.6447 21.544C47.3477 21.3573 47.0539 21.1722 46.7584 20.9855C46.3208 20.7094 45.9183 21.402 46.3543 21.6765C46.6498 21.8616 46.9453 22.0483 47.2407 22.235C47.6767 22.5111 48.0775 21.8185 47.6447 21.544Z" fill="#222222"/>
<path d="M48.8202 20.0967C48.7116 19.9467 48.603 19.7966 48.4944 19.6466C48.1957 19.2333 47.501 19.6307 47.8044 20.0504C47.913 20.1988 48.02 20.3504 48.1302 20.5004C48.4289 20.9137 49.1236 20.5163 48.8202 20.0967Z" fill="#222222"/>
<path d="M51.8946 53.5646C50.2528 50.7337 46.2409 52.9694 47.7326 55.8689C47.9977 56.3827 48.7866 56.0205 48.6461 55.4827C48.1845 53.7258 46.5156 51.3066 44.3404 52.3327C41.7563 53.5534 43.2097 56.37 44.5161 57.9609C44.925 58.4604 45.6277 57.7487 45.2236 57.2556C44.4187 56.2742 43.4956 55.1316 44.0785 53.7896C44.786 52.1603 46.613 53.5885 47.0954 54.2619C47.4068 54.6976 47.5474 55.237 47.6815 55.7476C47.9865 55.62 48.29 55.4923 48.595 55.363C47.6831 53.5869 50.0627 52.3933 51.0322 54.0673C51.3548 54.6242 52.2188 54.1199 51.8946 53.563V53.5646Z" fill="#222222"/>
<path d="M44.9026 57.5907C44.1807 56.7817 42.697 56.8375 42.0933 57.7726C41.4449 58.7748 42.0662 60.2205 43.2241 60.4727C43.8533 60.6099 44.1184 59.6461 43.4892 59.5088C42.9989 59.4019 42.6571 58.8306 42.903 58.3583C43.1522 57.878 43.8853 57.9498 44.1951 58.296C44.6247 58.7764 45.3306 58.0694 44.9026 57.5891V57.5907Z" fill="#222222"/>
<path d="M43.3502 59.4993C40.4691 59.6014 41.9911 63.9626 43.5083 64.8674C44.0913 65.2153 44.8115 65.2536 45.4679 65.2264C45.9966 65.2057 46.514 65.0382 47.0123 64.8802C47.4323 64.7461 48.1031 65.4147 48.4257 65.5695C49.5644 66.1233 51.3483 65.5855 51.9983 64.4956C52.3289 63.9403 51.4649 63.4392 51.1343 63.9913C50.3486 65.311 48.5854 64.6919 47.7757 63.8285C47.6639 63.7121 47.4467 63.6371 47.2886 63.6993C45.8896 64.2562 44.1839 64.6679 43.1793 63.2381C42.8951 62.8344 42.2179 60.5349 43.3518 60.495C43.9954 60.4727 43.9954 59.4737 43.3518 59.4961L43.3502 59.4993Z" fill="#222222"/>
<path d="M37.8611 52.8162C42.5022 53.8327 46.8207 55.4971 47.8875 60.6466C48.0185 61.2769 48.9815 61.0088 48.8522 60.3817C47.7118 54.8875 43.1235 52.9454 38.1262 51.8523C37.4986 51.7151 37.2319 52.6774 37.8611 52.8162Z" fill="#222222"/>
<path d="M38.5223 52.4938C38.4105 52.8641 38.3003 53.2343 38.1901 53.6045C38.0415 54.0992 38.8129 54.3082 38.9615 53.8167C39.0733 53.4465 39.1835 53.0763 39.2937 52.7061C39.4422 52.213 38.6708 52.0024 38.5223 52.4938Z" fill="#222222"/>
<path d="M39.8559 52.7157C39.7074 53.1593 39.5588 53.6029 39.4119 54.0465C39.2474 54.5364 40.0204 54.7439 40.1833 54.2588C40.3318 53.8151 40.4803 53.3715 40.6272 52.9279C40.7917 52.438 40.0187 52.2306 39.8574 52.7157H39.8559Z" fill="#222222"/>
<path d="M41.298 53.6029C41.1862 54.0082 41.076 54.4168 40.9658 54.8237C40.8285 55.3216 41.6014 55.5322 41.7356 55.0359C41.8474 54.6306 41.9592 54.2221 42.0694 53.8151C42.2051 53.3173 41.4337 53.1066 41.298 53.6029Z" fill="#222222"/>
<path d="M38.3833 51.155C38.3434 51.6736 38.3067 52.1907 38.2667 52.7077C38.2284 53.2231 39.027 53.2183 39.0669 52.7077C39.1052 52.1907 39.1435 51.6736 39.1819 51.155C39.2202 50.6412 38.4201 50.6444 38.3833 51.155Z" fill="#222222"/>
<path d="M39.6051 51.3784C39.5684 51.9321 39.5301 52.4875 39.4933 53.0428C39.4598 53.5566 40.2583 53.5534 40.2935 53.0428C40.3302 52.4875 40.3669 51.9321 40.4053 51.3784C40.4404 50.8646 39.6403 50.8678 39.6067 51.3784H39.6051Z" fill="#222222"/>
<path d="M40.8332 52.047C40.7965 52.3055 40.7598 52.5641 40.723 52.8226C40.6911 53.038 40.771 53.2518 41.0025 53.3141C41.1926 53.3667 41.4641 53.2518 41.4928 53.0348C41.5312 52.7763 41.5679 52.5162 41.6046 52.2577C41.6765 51.7534 40.9067 51.5364 40.8332 52.0454V52.047Z" fill="#222222"/>
<path d="M49.2801 57.8604C48.6269 58.6088 48.2564 59.4881 48.1718 60.4775C48.1287 60.9897 48.9288 60.9865 48.9719 60.4775C49.0374 59.7099 49.3408 59.003 49.8471 58.4237C50.1841 58.0375 49.6219 57.4695 49.2817 57.8588L49.2801 57.8604Z" fill="#222222"/>
<path d="M46.4613 60.5525C46.9852 60.4136 47.4931 60.4934 47.953 60.779C48.3922 61.0503 48.7931 60.3594 48.3571 60.0881C47.7199 59.6939 46.9724 59.5902 46.2505 59.7833C45.7522 59.9157 45.9631 60.6865 46.4629 60.5525H46.4613Z" fill="#222222"/>
<path d="M41.1271 30.3686C41.718 30.6063 42.1604 31.117 42.3441 31.7202C42.4926 32.2117 43.2656 32.0026 43.1155 31.508C42.844 30.6143 42.2019 29.9425 41.3395 29.5978C40.8604 29.4063 40.656 30.1787 41.1271 30.3686Z" fill="#222222"/>
<path d="M44.1264 29.9984C43.3183 30.2569 42.6955 30.9095 42.515 31.7425C42.4064 32.2436 43.1762 32.4574 43.2864 31.9548C43.4078 31.3962 43.7862 30.9463 44.3388 30.7691C44.8275 30.6127 44.6183 29.8404 44.1264 29.9984Z" fill="#222222"/>
<path d="M25.6148 34.9149C24.8498 33.5314 23.7047 32.7048 22.1731 32.3298C21.0823 32.0617 19.1514 32.3361 18.5413 33.4532C17.9488 34.5383 18.1213 35.7974 19.0173 36.7022C19.4724 37.1633 19.9484 37.5719 20.4467 37.9836C20.6431 38.1463 21.6876 38.5533 21.3235 38.4719C20.7693 38.349 20.2247 38.2102 19.6609 38.124C17.8354 37.8415 14.9224 38.8421 15.665 41.3091C16.1681 42.9815 18.2044 43.0214 19.6529 42.7756C20.1608 42.6911 19.9452 41.9203 19.4405 42.0049C18.9406 42.0895 18.4312 42.0895 17.9281 42.056C15.8263 41.9171 16.1921 39.4086 17.9536 38.9139C18.8911 38.6522 19.9883 38.9666 20.9018 39.19C21.2244 39.2698 21.6285 39.4309 21.9048 39.1708C22.0038 39.0767 22.0485 38.9155 22.007 38.7814C21.595 37.4633 20.1368 36.8761 19.3335 35.8006C18.9422 33.9958 19.5092 33.0782 21.0328 33.0479C21.5183 33.016 21.9942 33.0734 22.4637 33.2202C23.5721 33.4931 24.3946 34.3596 24.9233 35.3154C25.174 35.767 25.8639 35.3633 25.6132 34.9117L25.6148 34.9149Z" fill="#222222"/>
<path d="M19.4038 42.3751C17.6358 42.9352 17.5911 45.3033 19.1466 46.1411C21.1653 47.2278 23.0035 45.1055 22.8502 43.181C22.8103 42.6703 22.0102 42.6671 22.0501 43.181C22.1475 44.4097 21.4592 45.6193 20.1113 45.5922C18.7553 45.565 18.2459 43.5799 19.6145 43.1458C20.1049 42.9911 19.8957 42.2203 19.4022 42.3751H19.4038Z" fill="#222222"/>
<path d="M22.4142 43.2256C21.7562 44.8022 22.6442 46.3885 24.3212 46.6725C25.8416 46.9294 27.2933 45.3592 26.9611 43.8623C26.6065 42.2618 28.1078 42.4198 28.6428 41.3825C28.9686 40.7506 29.1555 40.0022 28.8632 39.3128C28.202 37.7538 26.3303 37.524 25.1165 38.5979C24.73 38.941 25.297 39.5043 25.6819 39.1628C27.3748 37.666 29.3152 40.3437 27.3093 41.5118C26.7902 41.8134 26.4149 41.9857 26.1051 42.5139C25.8112 43.015 26.169 43.8336 26.1993 44.3299C26.3399 46.6565 22.0565 46.1459 23.1856 43.4379C23.3837 42.9623 22.6107 42.7565 22.4158 43.2256H22.4142Z" fill="#222222"/>
<path d="M19.645 31.7984C19.9037 31.5766 20.164 31.3548 20.4227 31.133C20.814 30.7962 20.2454 30.2345 19.8573 30.568C19.5986 30.7899 19.3383 31.0117 19.0796 31.2335C18.6867 31.567 19.2553 32.1303 19.645 31.7984Z" fill="#222222"/>
<path d="M20.4435 29.9728C20.3333 30.1595 20.2215 30.3446 20.1129 30.5298C19.8494 30.9734 20.5409 31.3755 20.8028 30.9335C20.913 30.7484 21.0248 30.5633 21.1334 30.3766C21.3985 29.9329 20.707 29.5308 20.4435 29.9728Z" fill="#222222"/>
<path d="M21.4368 30.8537C21.2532 31.1138 21.0695 31.3739 20.8859 31.634C20.5888 32.0569 21.2819 32.4542 21.5758 32.0378C21.7594 31.7776 21.9431 31.5175 22.1268 31.2574C22.4238 30.8361 21.7307 30.4372 21.4368 30.8537Z" fill="#222222"/>
<path d="M20.4466 32.7351C20.7054 32.6234 20.9641 32.5117 21.2228 32.4C21.6955 32.1957 21.2867 31.508 20.8187 31.709C20.56 31.8207 20.2997 31.9324 20.0426 32.0457C19.5699 32.25 19.9771 32.9378 20.4466 32.7351Z" fill="#222222"/>
<path d="M22.7688 32.0728C22.5132 32.408 22.2561 32.7431 21.999 33.0782C21.686 33.4867 22.3807 33.8841 22.6905 33.4819C22.946 33.1468 23.2032 32.8117 23.4603 32.4782C23.7733 32.0697 23.0786 31.6707 22.7688 32.0744V32.0728Z" fill="#222222"/>
<path d="M21.5837 35.5771H22.2497C22.7655 35.5771 22.7655 34.7793 22.2497 34.7793H21.5837C21.0679 34.7793 21.0679 35.5771 21.5837 35.5771Z" fill="#222222"/>
<path d="M23.2878 34.3309C23.1026 34.5527 22.9189 34.7761 22.7336 34.9995C22.4078 35.3921 22.97 35.9601 23.299 35.5644C23.4843 35.341 23.6679 35.1192 23.8532 34.8958C24.179 34.5016 23.6168 33.9335 23.2878 34.3309Z" fill="#222222"/>
<path d="M43.3215 23.0712C43.5451 23.5148 43.7687 23.9584 43.9922 24.4004C44.2254 24.8616 44.9138 24.4563 44.6822 23.9967C44.4586 23.5531 44.235 23.111 44.0114 22.6674C43.7782 22.2062 43.0899 22.6116 43.3215 23.0712Z" fill="#222222"/>
<path d="M46.0158 23.9121C45.3769 23.9488 44.7764 24.1387 44.2494 24.501C43.8278 24.7914 44.227 25.484 44.6534 25.1903C45.0655 24.9079 45.5159 24.7387 46.0173 24.71C46.53 24.6813 46.5332 23.8818 46.0173 23.9121H46.0158Z" fill="#222222"/>
<path d="M42.0678 52.379C41.9081 52.963 42.0726 53.571 42.515 53.9875C42.8903 54.3402 43.4572 53.7769 43.0803 53.4242C42.8408 53.1992 42.7513 52.912 42.8392 52.5928C42.9749 52.0949 42.2035 51.8827 42.0678 52.3806V52.379Z" fill="#222222"/>
<path d="M42.4159 55.0104C42.713 54.8269 43.0101 54.6417 43.3055 54.4598C43.7431 54.1885 43.3423 53.4976 42.9015 53.7689C42.6044 53.9524 42.3074 54.1375 42.0103 54.321C41.5727 54.5923 41.9752 55.2832 42.4144 55.0104H42.4159Z" fill="#222222"/>
<path d="M21.7882 40.6325C22.0821 40.4809 22.4111 40.5528 22.6395 40.7825C23.002 41.1496 23.5674 40.5847 23.2048 40.2176C22.7177 39.7246 21.9958 39.6272 21.3841 39.9416C20.9258 40.1778 21.3299 40.8671 21.7882 40.6325Z" fill="#222222"/>
<path d="M24.1455 39.691C23.5482 39.833 23.0595 40.1937 22.7273 40.7075C22.4478 41.1416 23.1393 41.5405 23.4188 41.1112C23.6408 40.7666 23.9634 40.5559 24.3579 40.4618C24.8594 40.3421 24.6469 39.5729 24.1455 39.691Z" fill="#222222"/>
<path d="M6.89868 19.9833C7.11589 21.3078 8.03739 21.9908 9.36455 21.635C9.78298 21.5233 10.1727 21.2392 10.3787 20.8594C10.5432 20.5546 10.5304 20.0903 10.5448 19.7551C10.631 17.8434 12.062 18.4706 13.0394 18.6956C13.576 18.8184 14.5918 18.8727 15.0134 18.3892C15.8551 17.4205 15.0837 16.4008 15.657 15.3413C16.6744 13.4551 14.8569 12.346 13.2438 11.8801C12.7472 11.7364 12.5363 12.5072 13.0314 12.6508C14.1701 12.9795 15.6155 13.7359 14.785 15.2742C14.6013 15.6157 14.6477 16.053 14.6684 16.4184C14.793 18.7434 12.3607 17.5067 11.0687 17.6695C10.5384 17.7365 9.9379 18.2057 9.84687 18.7562C9.76702 19.2333 9.81651 20.4461 9.47474 20.7062C8.64905 21.3349 7.8234 20.6919 7.67168 19.7711C7.58863 19.2636 6.81883 19.4791 6.90028 19.9833H6.89868Z" fill="#222222"/>
<path d="M10.1296 16.0386C13.9051 16.1615 18.6228 16.6737 19.9947 20.8642C20.1544 21.3525 20.9258 21.1435 20.7661 20.652C19.2728 16.0865 14.3091 15.3764 10.1296 15.2391C9.61372 15.2232 9.61532 16.0211 10.1296 16.0386Z" fill="#222222"/>
<path d="M16.898 18.3254C17.195 18.1019 17.4904 17.8817 17.7875 17.6599C18.1947 17.3551 17.7971 16.661 17.3834 16.969C17.0864 17.1924 16.7909 17.4126 16.4939 17.6344C16.0866 17.9392 16.4843 18.6333 16.898 18.3254Z" fill="#222222"/>
<path d="M18.0095 19.4344C18.1932 19.3227 18.38 19.2126 18.5637 19.1009C19.0061 18.836 18.6036 18.1466 18.1596 18.4115C17.9744 18.5232 17.7891 18.6318 17.6055 18.7435C17.1647 19.0084 17.5655 19.7009 18.0095 19.4344Z" fill="#222222"/>
<path d="M19.0908 20.703C19.3287 20.5099 19.6146 20.3998 19.9196 20.3759C20.4307 20.336 20.4339 19.5365 19.9196 19.5764C19.3862 19.6179 18.939 19.7998 18.527 20.1381C18.1261 20.4637 18.6963 21.0254 19.0923 20.703H19.0908Z" fill="#222222"/>
<path d="M17.9073 15.7801C17.6853 16.1136 17.4634 16.4455 17.2414 16.779C16.9555 17.2099 17.6486 17.6088 17.9329 17.1828C18.1549 16.8509 18.3769 16.5173 18.5989 16.1838C18.8848 15.7546 18.1932 15.3556 17.9073 15.7801Z" fill="#222222"/>
<path d="M18.9134 17.2275C18.6563 17.5993 18.3992 17.9711 18.142 18.3413C17.8482 18.7658 18.5429 19.1647 18.8336 18.7451C19.0907 18.3732 19.3479 18.0014 19.605 17.6312C19.8989 17.2067 19.2057 16.8078 18.915 17.2275H18.9134Z" fill="#222222"/>
<path d="M20.1911 18.8073C19.9308 19.0658 19.6721 19.3243 19.4133 19.5828C19.0476 19.9466 19.6129 20.5115 19.9787 20.1477C20.2374 19.8892 20.4977 19.6307 20.7565 19.3722C21.1206 19.0083 20.5552 18.4434 20.1911 18.8073Z" fill="#222222"/>
<path d="M16.3118 15.3205C16.2384 15.579 16.1633 15.8391 16.0898 16.0977C15.9477 16.5939 16.7191 16.8046 16.8612 16.3099C16.9347 16.0514 17.0098 15.7913 17.0832 15.5344C17.2238 15.0381 16.4524 14.8274 16.3118 15.3221V15.3205Z" fill="#222222"/>
<path d="M15.7577 17.8179C15.9796 17.6344 16.2016 17.4493 16.4236 17.2642C16.8213 16.9338 16.2512 16.3721 15.8583 16.6993C15.6363 16.8844 15.4143 17.0679 15.1923 17.253C14.7946 17.5833 15.3648 18.145 15.7577 17.8179Z" fill="#222222"/>
<path d="M8.14925 55.5865C8.36965 54.9577 9.82934 54.9928 10.3117 55.0806C11.1341 55.229 11.1949 55.8625 11.1805 56.571C11.1693 57.1455 11.0527 57.7152 10.9441 58.2769C10.8994 58.5083 10.7668 58.8945 10.9281 59.1083C11.0447 59.2631 11.1853 59.3301 11.3801 59.2918C11.7347 59.2232 12.0078 58.7716 12.1994 58.5035C12.4981 58.0822 11.805 57.6849 11.5079 58.0998C11.4073 58.2514 11.2923 58.3918 11.1661 58.5226C11.3162 58.5833 11.4664 58.6455 11.6181 58.7062C11.7443 58.8753 11.7267 58.4365 11.7618 58.2418C11.8369 57.8524 11.8976 57.4599 11.9439 57.0673C12.0253 56.3732 12.0317 55.5832 11.6452 54.9721C10.8786 53.7625 7.86496 53.9875 7.37945 55.3758C7.20697 55.8625 7.97996 56.0716 8.14925 55.5881V55.5865Z" fill="#222222"/>
<path d="M12.0828 58.6327C12.4933 58.2338 12.9005 57.8365 13.4499 57.6338C14.0903 57.396 14.7324 57.728 14.7962 58.4205C14.8953 59.4881 13.7118 60.1104 12.9293 60.5445C12.7488 60.645 12.6642 60.9147 12.7855 61.0918C13.0059 61.4174 13.3381 61.4588 13.6336 61.2003C14.0232 60.862 13.4563 60.2987 13.0682 60.6354C13.1065 60.6131 13.1449 60.5908 13.1832 60.5668C13.2982 60.6322 13.4132 60.6977 13.5282 60.7647C13.5106 60.7376 13.493 60.7136 13.4771 60.6881C13.4291 60.87 13.3812 61.0519 13.3333 61.2354C14.512 60.5812 16.2623 59.2727 15.4239 57.6801C15.0837 57.0306 14.4816 56.7593 13.7645 56.7673C12.859 56.7801 12.1227 57.479 11.519 58.0678C11.1485 58.4269 11.7155 58.9918 12.0844 58.6327H12.0828Z" fill="#222222"/>
<path d="M13.3381 61.253C15.7529 60.5812 16.2687 64.3775 13.5633 64.1302V64.9296C13.7549 65.6685 13.9466 66.4057 14.1382 67.1446C13.822 67.435 13.4707 67.6743 13.0874 67.8626C12.637 68.1132 13.0395 68.8042 13.4914 68.5536C14.6413 67.9121 15.4255 67.1382 15.5197 65.785C15.5948 64.7174 14.4912 64.0344 13.5633 64.1302C13.0506 64.1828 13.0474 64.8818 13.5633 64.9296C17.3004 65.2727 16.8037 59.461 13.1257 60.4838C12.629 60.6211 12.8398 61.3918 13.3381 61.2546V61.253Z" fill="#222222"/>
<path d="M9.26079 63.3658C11.7091 60.1487 15.1508 58.0631 19.1179 57.3163C19.6242 57.2205 19.4086 56.4514 18.9055 56.5455C14.7196 57.3338 11.1437 59.579 8.56925 62.9621C8.25782 63.3722 8.95256 63.7695 9.26079 63.3658Z" fill="#222222"/>
<path d="M19.3415 57.5796C19.1195 57.4327 18.8975 57.2827 18.6755 57.1359C18.2459 56.8487 17.8466 57.5412 18.2714 57.8269C18.4934 57.9737 18.7154 58.1237 18.9374 58.2705C19.367 58.5577 19.7663 57.8636 19.3415 57.5796Z" fill="#222222"/>
<path d="M17.8866 56.3843C17.7748 56.6428 17.6597 56.8998 17.5464 57.1567C17.3419 57.6226 18.0303 58.0312 18.2363 57.5604C18.3497 57.3019 18.4631 57.045 18.5765 56.788C18.7809 56.3205 18.0926 55.9136 17.885 56.3843H17.8866Z" fill="#222222"/>
<path d="M16.8676 56.488C16.7558 56.7833 16.6457 57.0785 16.5339 57.3753C16.3534 57.8588 17.1263 58.0662 17.3052 57.5875C17.417 57.2907 17.5272 56.9971 17.639 56.7003C17.8211 56.2168 17.0481 56.0109 16.8676 56.488Z" fill="#222222"/>
<path d="M18.0255 57.9849C17.6422 57.8556 17.342 57.6258 17.0912 57.3115C16.7686 56.9077 16.208 57.4774 16.5258 57.8764C16.8628 58.296 17.3036 58.5849 17.8131 58.7556C18.3034 58.9216 18.511 58.1492 18.0255 57.9849Z" fill="#222222"/>
<path d="M15.6139 56.4769C15.4686 56.8838 15.3249 57.2939 15.1795 57.7008C15.007 58.1875 15.78 58.395 15.9509 57.9131C16.0962 57.5045 16.2416 57.096 16.3853 56.6891C16.5578 56.2024 15.7848 55.9949 15.6139 56.4769Z" fill="#222222"/>
<path d="M16.3135 58.5306C16.0547 58.3072 15.796 58.087 15.5373 57.8652C15.1476 57.5317 14.5807 58.0934 14.9719 58.4301C15.2307 58.6519 15.4894 58.8737 15.7481 59.0955C16.1378 59.429 16.7047 58.8657 16.3135 58.5306Z" fill="#222222"/>
<path d="M8.24504 61.4652C7.40178 62.7754 8.62513 64.3951 10.1136 63.9961C10.6103 63.8621 10.3995 63.0929 9.90122 63.2254C9.06755 63.4488 8.47982 62.5759 8.93658 61.8674C9.21607 61.4333 8.52452 61.0328 8.24504 61.4636V61.4652Z" fill="#222222"/>
<path d="M24.4058 7.11989C29.7033 6.3236 34.9784 6.62522 40.1593 7.99438C40.7822 8.15875 41.0473 7.1949 40.4244 7.03054C35.063 5.6135 29.6234 5.32945 24.1407 6.15446C23.505 6.25021 23.7765 7.21246 24.4058 7.11831V7.11989Z" fill="#222222"/>
<path d="M24.2924 1.30014C23.5162 2.4092 22.7384 3.51825 21.9607 4.6289C21.6636 5.05178 22.3583 5.45073 22.6522 5.03264C23.4283 3.92199 24.2061 2.81453 24.9839 1.70388C25.281 1.281 24.5862 0.882053 24.294 1.30014H24.2924Z" fill="#222222"/>
<path d="M26.557 1.08311C25.4199 2.4459 24.2812 3.81028 23.1441 5.17625C22.8151 5.56881 23.3789 6.13691 23.7078 5.74116C24.8466 4.37678 25.9853 3.0124 27.1224 1.64802C27.4514 1.25546 26.8876 0.687365 26.557 1.08311Z" fill="#222222"/>
<path d="M29.0133 0.882058C27.5824 2.56559 26.153 4.24913 24.722 5.93425C24.3898 6.32521 24.952 6.89172 25.2874 6.49916C26.7183 4.81563 28.1477 3.1305 29.5787 1.44696C29.9093 1.056 29.3471 0.4895 29.0133 0.882058Z" fill="#222222"/>
<path d="M31.3259 1.198C30.1217 2.65494 28.9159 4.11027 27.7117 5.56721C27.3859 5.96136 27.9481 6.52946 28.2771 6.13211C29.4813 4.67518 30.6855 3.21984 31.8912 1.76291C32.217 1.37035 31.6549 0.800659 31.3259 1.198Z" fill="#222222"/>
<path d="M54.4547 11.821C54.4547 11.821 55.1031 12.4242 55.8984 13.4742C56.3041 13.9928 56.7337 14.628 57.1633 15.3285C57.3677 15.6828 57.5993 16.0402 57.7925 16.4248C57.9874 16.8094 58.187 17.1987 58.385 17.5881C58.5623 17.9886 58.7428 18.3876 58.9041 18.7865C59.0798 19.1807 59.2075 19.586 59.3513 19.9706C59.6196 20.7461 59.8336 21.4834 59.9741 22.1249C60.276 23.4047 60.3287 24.2919 60.3287 24.2919C60.3287 24.2919 60.2153 24.1004 60.0364 23.7605C59.8591 23.4206 59.61 22.9387 59.3257 22.3547C59.0414 21.7722 58.7109 21.0972 58.3723 20.3679C58.0305 19.6434 57.6648 18.8727 57.2991 18.0987C56.9365 17.3264 56.574 16.5509 56.2338 15.8264C55.8888 15.1019 55.5774 14.4173 55.3091 13.8285C55.0392 13.238 54.8268 12.7402 54.6766 12.3843C54.5281 12.0301 54.4531 11.8226 54.4531 11.8226L54.4547 11.821Z" fill="#222222"/>
<path d="M58.7923 14.8115C58.7923 14.8115 59.0622 14.8163 59.3513 14.9838C59.65 15.1354 59.9438 15.4482 60.1099 15.8248C60.2728 16.203 60.3016 16.6307 60.2057 16.953C60.1291 17.2737 59.9486 17.4796 59.9486 17.4796C59.9486 17.4796 59.7266 17.32 59.5334 17.0998C59.3242 16.8812 59.1389 16.6003 59.0095 16.3019C58.8802 16.0019 58.8035 15.6764 58.7859 15.3732C58.762 15.086 58.7907 14.8115 58.7907 14.8115H58.7923Z" fill="#222222"/>
</svg>
