<svg width="53" height="56" viewBox="0 0 53 56" fill="none" xmlns="http://www.w3.org/2000/svg">
<path d="M7.20849 0.686287C7.01722 2.30115 7.01722 3.8389 7.21137 5.45376C7.26027 5.8507 7.49182 6.10198 7.90169 6.1391C13.5665 6.6317 19.332 6.48322 25.0113 6.49179C31.237 6.50178 37.5303 6.61886 43.7431 6.13626C44.1055 6.10771 44.4506 5.84498 44.4334 5.4509C44.3658 3.83605 44.7268 2.32256 44.5341 0.686287C44.4923 0.332189 44.2507 -0.0204887 43.8437 0.00092855C31.9158 0.646301 19.8426 0.112298 7.90025 0.00092855C7.01148 -0.00763834 7.01148 1.36308 7.90025 1.37164C19.8426 1.48301 31.9158 2.01702 43.8437 1.37164C43.6136 1.14319 43.3835 0.914737 43.1534 0.686287C43.3461 2.31685 42.9866 3.84033 43.0528 5.4509C43.2829 5.22245 43.513 4.994 43.7431 4.76555C37.769 5.22959 31.7231 5.11964 25.7375 5.12107C19.8195 5.1225 13.8052 5.28099 7.90309 4.76698C8.1332 4.99543 8.36331 5.22388 8.59341 5.45233C8.39926 3.83748 8.39926 2.29972 8.59053 0.684857C8.69551 -0.191821 7.31348 -0.180398 7.20993 0.684857L7.20849 0.686287Z" fill="#222222"/>
<path d="M7.63997 5.1996C5.68122 12.54 4.49761 20.1131 3.26943 27.5992C1.95209 35.6192 0.686533 43.6935 0.00197735 51.7949C-0.0253474 52.1076 0.234959 52.3632 0.508206 52.456C7.03306 54.6605 14.9098 56.7866 21.8244 55.7128C23.4351 55.463 25.1278 55.0475 26.4379 54.028C26.9801 53.6054 28.0342 54.4592 28.795 54.7391C30.0002 55.1831 31.2988 55.3416 32.5687 55.483C38.9512 56.194 45.7205 54.0337 51.3149 51.1653C51.5278 51.0582 51.6601 50.804 51.6572 50.5741C51.5968 44.4117 50.3384 38.1693 49.336 32.1111C47.8519 23.1358 46.152 14.1963 44.4061 5.26957C44.2364 4.40145 42.9061 4.76984 43.0758 5.63367C45.3926 17.476 47.6793 29.3468 49.372 41.2962C49.6869 43.5165 49.9602 45.7424 50.15 47.9769C50.2133 48.7194 50.2536 49.4633 50.2723 50.2072C50.2852 50.6784 46.1865 51.9605 45.5048 52.2076C39.9694 54.2122 32.3171 55.6372 26.9873 52.3675C26.7184 52.2004 26.3761 52.2675 26.1517 52.4746C21.8028 56.4839 13.0819 54.2593 8.01386 53.1156C5.92568 52.6445 3.86053 52.0748 1.81837 51.4408C1.6084 51.3751 1.39986 51.308 1.19276 51.2409C0.525465 51.0253 1.42288 51.2823 1.42144 51.2995C1.55231 49.7589 1.72631 48.2211 1.90464 46.6848C3.49522 32.9906 5.40941 18.9109 8.97025 5.5637C9.19891 4.70844 7.86719 4.34577 7.63853 5.1996H7.63997Z" fill="#222222"/>
<path d="M25.4686 31.063C25.611 38.362 25.7792 45.6596 25.9202 52.9586C25.9374 53.841 27.3181 53.8424 27.3008 52.9586C27.1584 45.6596 26.9902 38.3635 26.8492 31.063C26.832 30.1806 25.4513 30.1792 25.4686 31.063Z" fill="#222222"/>
<path d="M24.2807 6.33614C24.1585 8.33651 24.0664 10.3355 24.0003 12.3372C23.9456 14.0292 23.5918 16.1238 24.019 17.7844C24.449 19.4563 25.9878 20.7614 27.6172 19.5434C28.319 19.0194 27.633 17.8272 26.9212 18.3598C25.076 19.7376 25.3147 15.6098 25.3176 15.3414C25.3277 14.339 25.355 13.3381 25.3809 12.3372C25.4341 10.3355 25.5391 8.33508 25.6613 6.33614C25.7146 5.45375 24.3339 5.45803 24.2807 6.33614Z" fill="#222222"/>
<path d="M28.0256 15.1286C28.1134 12.1002 28.2011 9.07184 28.2902 6.04345C28.3147 5.15963 26.9355 5.16248 26.9096 6.04345C26.8219 9.07184 26.7342 12.1002 26.6464 15.1286C26.6206 16.0125 28.0012 16.0096 28.0256 15.1286Z" fill="#222222"/>
<path d="M11.6653 0.567769C11.2152 2.23117 11.1936 3.90884 11.592 5.5851C11.7257 6.14623 12.5929 5.90779 12.4606 5.34809C12.0968 3.82318 12.1241 2.31826 12.534 0.806203C12.685 0.249355 11.8163 0.0137781 11.6653 0.569198V0.567769Z" fill="#222222"/>
<path d="M12.9654 1.43017C13.0704 2.8694 13.1754 4.31007 13.2789 5.74931C13.3192 6.32043 14.2209 6.32472 14.1792 5.74931C14.0742 4.31007 13.9692 2.87083 13.8657 1.43017C13.824 0.85904 12.9237 0.854756 12.9654 1.43017Z" fill="#222222"/>
<path d="M37.3189 1.6929C37.7748 3.03219 37.8827 4.38861 37.6094 5.77787C37.4987 6.34043 38.3659 6.58029 38.4781 6.01488C38.7815 4.47284 38.6952 2.94651 38.189 1.45444C38.0035 0.910447 37.1348 1.14461 37.3203 1.69147L37.3189 1.6929Z" fill="#222222"/>
<path d="M39.3927 1.42875V5.30098C39.3927 5.87639 40.293 5.87639 40.293 5.30098V1.42875C40.293 0.85334 39.3927 0.85334 39.3927 1.42875Z" fill="#222222"/>
<path d="M1.20715 48.3839C3.80587 50.1686 7.58675 50.5356 10.627 50.9168C14.7746 51.4351 19.0717 51.7906 23.238 51.2538C25.007 51.0253 26.7068 50.4699 28.516 50.5884C30.4546 50.7141 32.3904 50.7526 34.3333 50.7012C40.1664 50.5456 45.8888 49.2848 51.2444 46.9946C52.0599 46.6462 51.3566 45.4654 50.5484 45.811C44.9195 48.2168 38.944 49.2834 32.8333 49.3605C29.5529 49.4005 26.7744 49.1849 23.5142 49.8345C19.8426 50.5656 15.7554 50.103 12.0723 49.7203C8.8854 49.3905 4.63134 49.0749 1.90319 47.2016C1.16974 46.6991 0.480888 47.8856 1.20715 48.3853V48.3839Z" fill="#222222"/>
<path d="M6.33123 16.0453C11.4927 14.5832 15.7137 11.1536 18.1628 6.41181C18.4274 5.90065 17.6509 5.44803 17.3848 5.96062C15.0392 10.5068 11.0426 13.7808 6.09251 15.1829C5.53595 15.3414 5.77323 16.2023 6.33123 16.0453Z" fill="#222222"/>
<path d="M34.2154 6.94297C36.0318 11.6376 39.8184 15.1472 44.675 16.595C45.233 16.7606 45.4689 15.8982 44.9137 15.7326C40.3807 14.3833 36.7825 11.0979 35.0826 6.70596C34.8755 6.17339 34.0054 6.40468 34.214 6.94297H34.2154Z" fill="#222222"/>
<path d="M26.4609 47.3459C27.1555 48.2439 27.8487 49.142 28.5434 50.0387C28.8224 50.3985 29.448 50.0444 29.1646 49.6775C28.47 48.7794 27.7768 47.8813 27.0822 46.9846C26.8032 46.6234 26.1776 46.9789 26.4609 47.3459Z" fill="#222222"/>
<path d="M26.5055 44.6316C27.6632 46.265 28.8223 47.897 29.9786 49.5304C30.2432 49.9045 30.8674 49.5475 30.5999 49.1692C29.4422 47.5357 28.2845 45.9038 27.1268 44.2703C26.8607 43.8962 26.2365 44.2532 26.504 44.6316H26.5055Z" fill="#222222"/>
<path d="M26.333 40.925C28.2673 43.8149 30.1987 46.7048 32.1316 49.5961C32.3876 49.9773 33.0117 49.6204 32.7543 49.2349C30.82 46.345 28.8886 43.4551 26.9542 40.5637C26.6983 40.1811 26.0755 40.5395 26.333 40.925Z" fill="#222222"/>
<path d="M32.1402 7.77966C32.248 8.47786 32.6435 9.06468 33.2116 9.48018C33.587 9.75289 33.945 9.1318 33.5754 8.86194C33.154 8.55496 32.9124 8.09663 32.8333 7.59118C32.7629 7.13571 32.0697 7.32989 32.1402 7.78107V7.77966Z" fill="#222222"/>
<path d="M34.3952 10.7581C34.5289 11.2878 34.851 11.7176 35.3112 12.0146C35.701 12.2673 36.062 11.6476 35.6751 11.3963C35.3702 11.2007 35.1789 10.9152 35.0898 10.5682C34.9761 10.1213 34.283 10.3112 34.3966 10.7581H34.3952Z" fill="#222222"/>
<path d="M37.3376 13.8936C37.6382 14.242 37.9373 14.5889 38.2379 14.9373C38.5399 15.2871 39.0461 14.7803 38.747 14.4319C38.4478 14.0835 38.1473 13.7365 37.8467 13.3881C37.5433 13.0383 37.037 13.5452 37.3376 13.8936Z" fill="#222222"/>
<path d="M40.7417 16.5222C41.0466 16.5422 41.3069 16.7006 41.4723 16.9548C41.7239 17.3403 42.3466 16.9819 42.095 16.5936C41.7843 16.1181 41.3097 15.8454 40.7417 15.8083C40.2772 15.7769 40.2815 16.4922 40.7417 16.5222Z" fill="#222222"/>
<path d="M43.7373 18.0699C43.9344 18.1756 44.1299 18.2812 44.327 18.3869C44.734 18.6054 45.0992 17.9885 44.6908 17.7701C44.4938 17.6644 44.2968 17.5588 44.1012 17.4531C43.6928 17.2347 43.3289 17.8529 43.7373 18.0714V18.0699Z" fill="#222222"/>
<path d="M7.09635 17.9157C7.43431 17.5759 7.86143 17.4089 8.34177 17.4246C8.80629 17.4388 8.80485 16.7249 8.34177 16.7092C7.67878 16.6878 7.05176 16.9405 6.58724 17.4103C6.26078 17.7387 6.76989 18.2441 7.09635 17.9157Z" fill="#222222"/>
<path d="M10.243 16.5307C10.4932 16.4308 10.742 16.3323 10.9923 16.2323C11.418 16.0624 11.2324 15.3714 10.801 15.5427C10.5508 15.6427 10.302 15.7426 10.0517 15.8411C9.62603 16.011 9.81153 16.7035 10.243 16.5307Z" fill="#222222"/>
<path d="M13.3293 14.409C13.5306 14.3091 13.729 14.2105 13.9289 14.1106C14.3446 13.9036 13.9793 13.2867 13.5651 13.4938C13.3652 13.5937 13.1653 13.6922 12.9654 13.7908C12.5498 13.9964 12.9151 14.6132 13.3293 14.409Z" fill="#222222"/>
<path d="M15.8532 12.183C16.0531 11.8846 16.253 11.5876 16.4529 11.2892C16.7103 10.9052 16.0861 10.5468 15.8302 10.928C15.6303 11.225 15.4304 11.5234 15.2305 11.8218C14.9716 12.2059 15.5957 12.5643 15.8517 12.183H15.8532Z" fill="#222222"/>
<path d="M17.5847 9.71291C17.7357 9.56442 17.8867 9.41735 18.0377 9.26886C18.3685 8.94475 17.8594 8.4393 17.5286 8.76341C17.3776 8.9119 17.2266 9.05898 17.0756 9.20748C16.7434 9.53016 17.2539 10.0356 17.5847 9.71291Z" fill="#222222"/>
<path d="M18.9466 7.19282C19.2975 6.74592 19.6456 6.29903 19.9965 5.85212C20.2769 5.49374 19.7721 4.984 19.4874 5.34667C19.1365 5.79357 18.787 6.24048 18.4375 6.68739C18.1556 7.04577 18.6619 7.55549 18.9466 7.19282Z" fill="#222222"/>
<path d="M7.80531 28.3945C7.80531 28.3945 7.86717 29.1426 7.85998 30.2349C7.85998 30.7818 7.85135 31.4171 7.82546 32.0954C7.80964 32.7736 7.76648 33.4932 7.73628 34.2142C7.71471 34.574 7.69314 34.9339 7.67301 35.2879C7.65863 35.6435 7.6198 35.9919 7.59822 36.3303C7.5522 37.0056 7.49325 37.6381 7.43285 38.1836C7.32211 39.2716 7.17974 40.0069 7.17974 40.0069C7.17974 40.0069 6.95969 39.2887 6.813 38.1936C6.73103 37.6467 6.67636 37.0042 6.6476 36.3146C6.64184 35.9719 6.61454 35.6149 6.63036 35.2523C6.63898 34.891 6.65048 34.5241 6.65911 34.1571C6.68931 33.7916 6.71953 33.4247 6.74829 33.0648C6.77562 32.7036 6.83745 32.3524 6.88059 32.0111C6.98414 31.3301 7.10926 30.6975 7.24732 30.1607C7.5105 29.0841 7.80531 28.3959 7.80531 28.3959V28.3945Z" fill="#222222"/>
<path d="M8.20372 43.2866C8.20372 43.2866 8.22818 43.3323 8.25263 43.4022C8.2742 43.4779 8.32165 43.5507 8.35042 43.6335C8.4252 43.802 8.47122 43.9405 8.45828 44.0662C8.44533 44.1918 8.36913 44.316 8.25839 44.4631C8.12608 44.6459 8.03691 44.7686 8.03691 44.7686C8.03691 44.7686 7.82692 44.7572 7.65722 44.613C7.4717 44.4788 7.35523 44.2104 7.38543 43.9477C7.41563 43.6835 7.58963 43.4479 7.80104 43.3565C7.89595 43.308 8.00815 43.2766 8.07862 43.2823C8.15341 43.2823 8.20516 43.288 8.20516 43.288L8.20372 43.2866Z" fill="#222222"/>
<path d="M49.1246 13.795C49.1246 13.795 49.4827 14.3933 49.8552 15.3485C50.0479 15.8225 50.2392 16.3865 50.4189 16.9976C50.5009 17.3046 50.603 17.6202 50.6721 17.9457C50.744 18.2712 50.8173 18.6025 50.8907 18.9338C50.9467 19.2693 51.0014 19.602 51.056 19.9318C51.1164 20.2602 51.138 20.59 51.1768 20.9056C51.2401 21.5381 51.2717 22.1321 51.2689 22.6446C51.2789 23.667 51.1682 24.3552 51.1682 24.3552C51.1682 24.3552 50.9165 23.7055 50.6533 22.7275C50.5167 22.2377 50.3729 21.668 50.2363 21.0555C50.1701 20.7485 50.0867 20.4344 50.0278 20.1103C49.9616 19.789 49.8954 19.4606 49.8293 19.1336C49.7128 18.4754 49.5834 17.8215 49.4913 17.2004C49.3907 16.5807 49.3116 15.9982 49.2555 15.4941C49.1347 14.4904 49.1232 13.7936 49.1232 13.7936L49.1246 13.795Z" fill="#222222"/>
<path d="M52.3029 16.0224C52.3029 16.0224 52.5014 16.1595 52.6552 16.3837C52.8264 16.605 52.9486 16.9105 52.9875 17.2261C53.0249 17.5431 52.9774 17.8686 52.8609 18.1242C52.7617 18.3769 52.5991 18.5554 52.5991 18.5554C52.5991 18.5554 52.4007 18.4183 52.2439 18.1956C52.0728 17.9743 51.9505 17.6687 51.9146 17.3517C51.8801 17.0348 51.9275 16.7092 52.0412 16.4551C52.1418 16.2023 52.3015 16.0239 52.3015 16.0239L52.3029 16.0224Z" fill="#222222"/>
</svg>
