<svg width="22" height="22" viewBox="0 0 22 22" fill="none" xmlns="http://www.w3.org/2000/svg">
<g id="Group 5826">
<path id="Rectangle 22" d="M4.52942 6.13193V5.5151C4.52942 3.40998 4.52942 2.35742 5.20318 1.76052C5.87694 1.16363 6.92182 1.29051 9.01159 1.54426L15.7233 2.35925C18.2351 2.66427 19.4911 2.81677 20.2455 3.66839C21 4.52001 21 5.78517 21 8.3155V13.6845C21 16.2148 21 17.48 20.2455 18.3316C19.4911 19.1832 18.2351 19.3357 15.7233 19.6407L9.01159 20.4557C6.92182 20.7095 5.87694 20.8364 5.20318 20.2395C4.52942 19.6426 4.52942 18.59 4.52942 16.4849V16.066" stroke="#303030" stroke-width="1.5" stroke-linecap="round" stroke-linejoin="round"/>
<path id="Vector 10" d="M10.4118 6L15.1177 11M15.1177 11L10.4118 16M15.1177 11H1.00003" stroke="#303030" stroke-width="1.5" stroke-linecap="round" stroke-linejoin="round"/>
</g>
</svg>
