<svg width="63" height="41" viewBox="0 0 63 41" fill="none" xmlns="http://www.w3.org/2000/svg">
<rect width="63" height="41" fill="#1E1E1E"/>
<rect width="390" height="844" transform="translate(-274 -237)" fill="#FAFAFB"/>
<rect x="-274" y="-129" width="390" height="229" fill="#F7F7F7"/>
<path d="M13.4523 1.3789C13.3172 3.02374 13.1821 4.66703 13.0486 6.31187C13.0235 6.62872 13.2968 6.96111 13.6015 7.031C19.7033 8.42112 26.5324 8.00952 32.7395 7.94273C36.4508 7.90235 40.1653 7.76411 43.8626 7.43328C45.9735 7.24535 48.4268 7.12575 50.3445 6.14413C50.6618 5.98104 50.7466 5.62225 50.6901 5.30229C50.4089 3.71492 50.1419 2.12444 49.8812 0.533963C49.8105 0.106833 49.3236 -0.0500369 48.9545 0.0136443C42.1726 1.18476 35.3278 2.31083 28.4265 2.36985C23.6817 2.41023 19.0405 1.57772 14.4072 0.662881C13.4585 0.474944 13.0533 1.91165 14.0067 2.09959C18.574 3.002 23.121 3.78792 27.792 3.85782C35.0121 3.96654 42.2731 2.67428 49.355 1.45036C49.0456 1.2764 48.7378 1.10244 48.4284 0.930032C48.6341 2.1757 48.843 3.42136 49.0566 4.66548C49.2985 6.06491 49.7226 4.87516 48.7629 5.17027C47.3761 5.5974 45.8793 5.73253 44.4437 5.88474C40.313 6.32585 36.1367 6.41283 31.9856 6.45787C27.7873 6.50447 23.5827 6.43147 19.3923 6.19072C17.8845 6.1053 16.372 5.99191 14.8799 5.76515C14.0224 5.63468 14.5925 5.87853 14.6726 4.89535C14.7684 3.72269 14.8642 2.55002 14.9616 1.3789C15.0402 0.42058 13.5324 0.428346 13.4538 1.3789H13.4523Z" fill="#222222"/>
<path d="M13.3125 6.40507C8.92729 15.4789 5.01488 24.868 0.100407 33.6793C-0.113197 34.0614 0.0312998 34.4559 0.370554 34.6982C8.99954 40.8768 21.5849 41.2465 31.7924 40.9156C41.7941 40.5926 54.3575 39.3888 62.6393 33.2195C62.9943 32.9539 63.0932 32.6045 62.9095 32.1991C58.8102 23.1734 54.7124 14.1478 50.6131 5.12213C50.2157 4.24612 48.9168 5.00564 49.3111 5.87388C53.4104 14.8995 57.5081 23.9252 61.6074 32.9508C61.697 32.6107 61.7881 32.2705 61.8776 31.9304C53.9727 37.8217 42.1522 38.9229 32.6248 39.3904C22.4597 39.889 9.72202 39.5628 1.13073 33.4106C1.22026 33.7507 1.31135 34.0909 1.40088 34.431C6.31535 25.6197 10.2278 16.2322 14.6129 7.15682C15.0291 6.29479 13.7302 5.53839 13.3109 6.40507H13.3125Z" fill="#222222"/>
<path d="M18.1311 7.04344C16.6563 17.6751 13.8292 28.0179 9.68433 37.935C9.39377 38.6309 10.5356 38.9306 10.8215 38.2457C14.9648 28.3269 17.7934 17.9842 19.2683 7.35253C19.3703 6.61786 18.2348 6.30101 18.1311 7.04344Z" fill="#222222"/>
<path d="M27.2564 7.62899C26.1429 18.0743 25.0309 28.5195 23.9189 38.9664C23.8388 39.7135 25.0199 39.7057 25.0984 38.9664C26.2104 28.5211 27.324 18.0758 28.436 7.62899C28.5161 6.8819 27.335 6.88966 27.2564 7.62899Z" fill="#222222"/>
<path d="M35.5713 7.78431C37.1545 18.3709 38.7376 28.9575 40.3224 39.5442C40.4339 40.2866 41.5695 39.9697 41.4595 39.2351C39.8748 28.6485 38.2916 18.0618 36.7084 7.47367C36.5969 6.73124 35.4613 7.04809 35.5713 7.78431Z" fill="#222222"/>
<path d="M43.4715 7.61191C46.8719 17.161 51.1189 26.4616 55.1978 35.7419C55.5009 36.43 56.5155 35.8367 56.2155 35.1533C52.1759 25.9645 47.9761 16.7587 44.6086 7.30127C44.3573 6.59611 43.2186 6.90054 43.4715 7.61191Z" fill="#222222"/>
<path d="M2.46106 30.972C3.32019 32.7784 4.17932 34.5848 5.04002 36.3912C5.25519 36.8447 5.9337 36.4502 5.71852 35.9982C4.85782 34.1918 3.99869 32.3855 3.13957 30.5791C2.92439 30.1255 2.24588 30.5201 2.46106 30.972Z" fill="#222222"/>
<path d="M3.78511 28.8116C5.38243 31.4038 6.75358 34.1002 7.89071 36.9208C8.07604 37.3806 8.83779 37.1802 8.64932 36.7142C7.48549 33.833 6.09706 31.0684 4.46362 28.4186C4.19975 27.9915 3.51967 28.3813 3.78511 28.8116Z" fill="#222222"/>
<path d="M5.17348 26.8172C7.18387 29.8102 8.877 32.9632 10.2387 36.2949C10.4272 36.7531 11.1874 36.5527 10.9973 36.0883C9.60891 32.6945 7.90164 29.4748 5.85199 26.4258C5.57399 26.0096 4.89234 26.3994 5.17348 26.8188V26.8172Z" fill="#222222"/>
<path d="M47.3352 7.28262C48.6467 8.3621 49.9581 9.44002 51.2696 10.5195C51.656 10.8379 52.2151 10.2912 51.8256 9.96966C50.5141 8.89018 49.2027 7.81226 47.8912 6.73279C47.5048 6.41438 46.9457 6.96266 47.3352 7.28262Z" fill="#222222"/>
<path d="M44.2772 7.28262C47.208 9.70872 50.1388 12.1348 53.0711 14.5594C53.4575 14.8793 54.0166 14.331 53.6271 14.0095C50.6964 11.5834 47.7656 9.15888 44.8332 6.73278C44.4469 6.41438 43.8877 6.96111 44.2772 7.28262Z" fill="#222222"/>
<path d="M45.774 11.8102C49.0299 14.2612 52.2858 16.7137 55.5433 19.1662C55.9469 19.4706 56.338 18.7934 55.9406 18.4952C52.6847 16.0427 49.4289 13.5917 46.1714 11.1392C45.7677 10.8364 45.3767 11.5104 45.774 11.8102Z" fill="#222222"/>
<path d="M55.7804 5.65797C55.7804 5.65797 56.3537 6.27459 57.0369 7.31679C57.3856 7.83245 57.7516 8.45839 58.1128 9.14491C58.284 9.49282 58.4788 9.84385 58.6374 10.2182C58.7992 10.5909 58.9625 10.9699 59.1274 11.3505C59.2688 11.7388 59.4101 12.1271 59.5484 12.5091C59.6913 12.8897 59.7887 13.2795 59.9033 13.6492C60.1122 14.3947 60.274 15.0999 60.3745 15.7118C60.5928 16.9327 60.596 17.7729 60.596 17.7729C60.596 17.7729 60.4954 17.5881 60.3399 17.2588C60.1845 16.9311 59.9677 16.4636 59.7258 15.8998C59.4824 15.3375 59.2028 14.6821 58.9201 13.9769C58.6248 13.2764 58.3374 12.5216 58.0296 11.7745C57.7359 11.0212 57.4422 10.2679 57.1657 9.56272C56.8877 8.85601 56.6411 8.18813 56.4322 7.6119C56.2218 7.03566 56.06 6.55106 55.9454 6.2047C55.8338 5.85833 55.7789 5.65642 55.7789 5.65642L55.7804 5.65797Z" fill="#222222"/>
<path d="M60.5897 8.88397C60.5897 8.88397 60.8849 8.94921 61.1959 9.21325C61.5179 9.45866 61.8179 9.90132 61.9592 10.3983C62.099 10.8954 62.0739 11.4281 61.9263 11.8024C61.799 12.1799 61.5776 12.3942 61.5776 12.3942C61.5776 12.3942 61.4017 12.1457 61.2493 11.8257C61.0828 11.5042 60.9352 11.1097 60.8237 10.7105C60.7122 10.3114 60.6336 9.89821 60.6069 9.53787C60.5865 9.35925 60.5897 9.20549 60.5834 9.08123C60.5834 8.96008 60.5897 8.88397 60.5897 8.88397Z" fill="#222222"/>
</svg>
