<svg width="63" height="68" viewBox="0 0 63 68" fill="none" xmlns="http://www.w3.org/2000/svg">
<path d="M24.7055 1.65628C30.6246 2.75293 36.5058 2.89244 42.4735 2.096C42.1189 1.89998 41.7644 1.70043 41.4099 1.50441C41.7788 2.55338 43.044 6.17532 41.1345 6.32012C39.2341 6.46493 37.3319 6.59384 35.4279 6.68744C33.0523 6.80223 30.6732 6.83401 28.2976 6.6945C26.8129 6.60621 24.6875 6.61504 24.5616 4.52063C24.4986 3.46637 25.1554 2.15957 25.6791 1.26777C26.2352 0.319463 24.7433 -0.535251 24.1872 0.413058C23.0516 2.35206 21.8585 5.67026 24.0307 7.36379C26.3414 9.16505 31.1249 8.51519 33.8064 8.44455C36.2395 8.38097 40.7296 8.90546 42.8496 7.48211C44.7087 6.23359 43.6469 2.68229 43.0764 1.05409C42.9072 0.571993 42.5041 0.397165 42.0146 0.462504C36.3619 1.21656 30.7704 1.06116 25.1645 0.0227855C24.0757 -0.178531 23.6114 1.45496 24.7055 1.65804V1.65628Z" fill="#222222"/>
<path d="M23.1615 5.03979C16.312 9.59238 11.9389 18.0018 8.3756 25.0567C4.26521 33.1959 0.572308 42.3188 0.0756054 51.4822C0.0594085 51.7736 0.250194 52.072 0.503945 52.2133C3.08824 53.6702 6.53458 54.7262 9.42842 53.6243C10.4542 53.2323 10.0097 51.5935 8.9695 51.9908C8.16685 52.2963 1.74929 52.4906 1.84107 50.7705C1.96885 48.4307 2.47276 46.1138 3.02525 43.8392C4.29401 38.6015 6.31141 33.5261 8.55737 28.6292C12.0559 21.0056 16.7458 11.346 24.0325 6.50375C24.9486 5.8945 24.0865 4.42524 23.1615 5.04155V5.03979Z" fill="#222222"/>
<path d="M17.1096 20.6065C13.6489 30.0012 10.9278 39.6945 9.57809 49.612C9.08859 53.2075 6.5745 62.1519 11.8421 63.4005C16.2206 64.4388 20.9861 64.4335 25.4582 64.6366C30.9939 64.8856 36.5386 64.9933 42.0798 64.9721C44.5165 64.9615 49.003 65.5884 50.108 62.7029C51.5225 59.0156 50.5813 54.0392 50.3096 50.1753C49.6725 41.0931 48.9238 32.0162 48.1679 22.941C48.078 21.8603 46.3503 21.8514 46.4403 22.941C47.0378 30.1231 47.6173 37.3052 48.1626 44.489C48.4613 48.4076 48.7799 52.328 48.9634 56.2537C49.0516 58.1591 49.6617 62.8477 46.8506 63.1462C45.6323 63.2751 44.3869 63.2521 43.165 63.268C33.8878 63.3846 24.463 63.2397 15.2362 62.2243C13.9548 62.0831 12.3964 61.993 11.2068 61.4367C8.86364 60.3418 11.4191 48.8209 11.6837 47.1626C13.1036 38.2499 15.6519 29.5297 18.7743 21.0568C19.154 20.0272 17.4858 19.5875 17.1096 20.6065Z" fill="#222222"/>
<path d="M0.0774596 51.8865C-0.0233207 54.1292 -0.395841 55.768 2.19925 56.4974C4.73856 57.2108 7.6468 57.3221 10.0853 56.2501C11.1003 55.8034 10.2203 54.3447 9.21428 54.7862C7.40563 55.5808 5.28928 55.4043 3.39604 55.0369C2.80396 54.9221 1.69715 54.8215 1.61797 54.0286C1.54778 53.324 1.77094 52.5911 1.80334 51.8865C1.85193 50.7934 0.124249 50.7987 0.0756582 51.8865H0.0774596Z" fill="#222222"/>
<path d="M9.74726 62.3021C9.30634 64.2729 10.3142 66.2949 12.4971 66.7734C16.9872 67.7606 21.8427 67.697 26.4264 67.8701C31.6544 68.0661 36.8896 68.0255 42.1176 67.8471C44.889 67.7535 47.8548 67.1249 49.057 64.4265C49.4979 63.4358 48.0096 62.5723 47.5651 63.5718C46.2046 66.6269 42.0492 66.1642 39.2651 66.2401C36.4127 66.3178 33.5584 66.3125 30.7042 66.2807C28.5428 66.256 10.5643 66.5439 11.4137 62.7524C11.6531 61.6875 9.98841 61.2354 9.74726 62.3021Z" fill="#222222"/>
<path d="M42.0901 7.46616C49.2563 14.341 52.4201 25.4893 55.0818 34.6669C56.4045 39.2283 57.5041 43.8639 58.278 48.5454C58.5371 50.1101 58.7369 51.6923 58.7693 53.2782C58.7873 54.2247 51.7758 53.5501 50.7249 53.2181C49.6613 52.8843 49.2113 54.5196 50.2659 54.8516C53.4279 55.8476 56.8059 55.6551 59.8599 54.4313C60.2252 54.2847 60.4897 54.0269 60.4933 53.6137C60.5671 45.9831 57.936 37.9198 55.6955 30.713C53.0986 22.3583 49.8412 12.5326 43.3121 6.26709C42.5148 5.50243 41.2929 6.69974 42.0901 7.46439V7.46616Z" fill="#222222"/>
<path d="M50.3109 58.3518C53.0409 58.4295 56.0013 58.6326 58.6594 57.8909C61.4345 57.1174 60.8136 54.7528 60.4663 52.5825C60.2935 51.5052 58.6288 51.9644 58.7998 53.0328C58.9096 53.7144 59.4027 55.0212 59.0913 55.6887C58.7548 56.4128 57.1603 56.494 56.5196 56.5664C54.4662 56.7942 52.3697 56.7165 50.3091 56.6582C49.1933 56.6264 49.1987 58.3218 50.3091 58.3518H50.3109Z" fill="#222222"/>
<path d="M26.5863 1.49039C25.9511 3.26339 25.7369 5.09467 25.9493 6.96127C26.0284 7.66058 27.1568 7.66941 27.0758 6.96127C26.8743 5.18297 27.0686 3.47177 27.6733 1.78354C27.9145 1.10895 26.8275 0.822866 26.5863 1.49039Z" fill="#222222"/>
<path d="M28.7441 2.37668C28.2582 3.86536 28.2025 5.38407 28.5444 6.90808C28.7028 7.60386 29.7879 7.30894 29.6313 6.61493C29.329 5.27811 29.4046 3.97132 29.8311 2.66982C30.0543 1.98994 28.9655 1.70032 28.7441 2.37668Z" fill="#222222"/>
<path d="M32.156 2.0182C31.6611 3.72586 31.7349 5.47767 32.4043 7.12883C32.6707 7.78222 33.7595 7.49791 33.4913 6.83568C32.8902 5.35582 32.7966 3.84594 33.2412 2.31134C33.4409 1.62439 32.3539 1.33301 32.1542 2.0182H32.156Z" fill="#222222"/>
<path d="M36.0111 2.52506C36.146 4.30512 36.2792 6.08519 36.416 7.86526C36.47 8.57163 37.5966 8.57693 37.5426 7.86526C37.4076 6.08519 37.2744 4.30512 37.1394 2.52506C37.0855 1.81868 35.9589 1.81338 36.0129 2.52506H36.0111Z" fill="#222222"/>
<path d="M39.2377 2.15438C39.4447 3.80906 39.6498 5.46551 39.8586 7.1202C39.945 7.81774 41.0716 7.82657 40.9852 7.1202C40.7782 5.46551 40.5731 3.80906 40.3661 2.15438C40.2779 1.45683 39.1514 1.448 39.2395 2.15438H39.2377Z" fill="#222222"/>
<path d="M3.03216 52.8101C2.97817 53.6083 2.92235 54.4083 2.86836 55.2065C2.82157 55.9181 3.94815 55.9128 3.99494 55.2065C4.04893 54.4083 4.10295 53.6083 4.15694 52.8101C4.20553 52.0984 3.07895 52.102 3.03036 52.8101H3.03216Z" fill="#222222"/>
<path d="M5.82196 53.3594V55.9377C5.82196 56.6511 6.94854 56.6511 6.94854 55.9377V53.3594C6.94854 52.646 5.82196 52.646 5.82196 53.3594Z" fill="#222222"/>
<path d="M52.721 55.0158C52.6581 55.8759 52.5951 56.7341 52.5339 57.5941C52.4835 58.3058 53.6083 58.3005 53.6605 57.5941C53.7216 56.7341 53.7864 55.8759 53.8476 55.0158C53.8998 54.3042 52.7732 54.3095 52.721 55.0158Z" fill="#222222"/>
<path d="M55.5376 54.6522C55.5916 55.3286 55.6455 56.0049 55.6995 56.6795C55.7553 57.3859 56.8819 57.3912 56.8261 56.6795C56.7721 56.0032 56.7199 55.3268 56.6659 54.6522C56.6084 53.9459 55.4818 53.9406 55.5394 54.6522H55.5376Z" fill="#222222"/>
<path d="M14.3454 62.659C13.8487 63.6709 13.7425 64.7746 14.0988 65.8483C14.3256 66.5229 15.4126 66.2333 15.1858 65.5551C14.9231 64.7711 14.9483 63.9658 15.3154 63.217C15.6303 62.5795 14.6585 62.018 14.3436 62.659H14.3454Z" fill="#222222"/>
<path d="M17.4293 63.1233C17.4905 64.167 17.5517 65.2107 17.6111 66.2544C17.6525 66.9625 18.779 66.966 18.7377 66.2544C18.6765 65.2107 18.6153 64.167 18.5541 63.1233C18.5127 62.4152 17.3861 62.4117 17.4275 63.1233H17.4293Z" fill="#222222"/>
<path d="M21.7325 63.856C21.6749 64.7778 21.6174 65.6979 21.558 66.6197C21.5148 67.3314 22.6396 67.3278 22.6846 66.6197C22.7421 65.6979 22.7997 64.7778 22.8591 63.856C22.9023 63.1443 21.7775 63.1479 21.7325 63.856Z" fill="#222222"/>
<path d="M25.5029 64.4141C25.5605 65.2123 25.6162 66.0105 25.6738 66.8105C25.7242 67.5168 26.8508 67.5221 26.8004 66.8105C26.7428 66.0123 26.6852 65.214 26.6294 64.4141C26.5791 63.7077 25.4525 63.7024 25.5029 64.4141Z" fill="#222222"/>
<path d="M30.1799 64.2254C30.1223 65.0855 30.0647 65.9455 30.0053 66.8055C29.9585 67.5172 31.0833 67.5119 31.1319 66.8055C31.1895 65.9455 31.2489 65.0855 31.3065 64.2254C31.3533 63.5138 30.2267 63.5173 30.1799 64.2254Z" fill="#222222"/>
<path d="M34.7282 64.5961V66.9907C34.7282 67.7023 35.8548 67.7023 35.8548 66.9907V64.5961C35.8548 63.8826 34.7282 63.8826 34.7282 64.5961Z" fill="#222222"/>
<path d="M40.0044 64.2643C39.8802 65.0625 39.756 65.8607 39.6282 66.6589C39.5184 67.3564 40.6036 67.6549 40.7152 66.952C40.8394 66.1538 40.9654 65.3556 41.0895 64.5574C41.1993 63.8599 40.1141 63.5614 40.0026 64.2625L40.0044 64.2643Z" fill="#222222"/>
<path d="M43.7672 64.2869C43.2741 65.0975 43.1464 66.037 43.3983 66.9482C43.5873 67.6352 44.6743 67.3438 44.4853 66.6533C44.3107 66.0211 44.3989 65.4065 44.7409 64.8432C45.1134 64.2287 44.1398 63.6742 43.7672 64.2852V64.2869Z" fill="#222222"/>
<path d="M31.0192 19.6086C31.6365 20.3097 32.2555 21.0108 32.8764 21.7136C33.2561 22.1445 33.8914 21.5176 33.5135 21.0885C32.8944 20.3874 32.2753 19.6863 31.6562 18.9853C31.2747 18.5526 30.6413 19.1813 31.0192 19.6104V19.6086Z" fill="#222222"/>
<path d="M31.1666 21.562C31.8361 20.9475 32.502 20.3347 33.1696 19.7201C33.5944 19.3299 32.9555 18.7047 32.5326 19.095C31.8631 19.7095 31.1972 20.3223 30.5296 20.9369C30.1049 21.3271 30.7437 21.9523 31.1648 21.562H31.1666Z" fill="#222222"/>
<path d="M30.4592 23.5591C30.9559 24.3556 31.5984 25.0213 32.3741 25.56C32.8492 25.8902 33.2991 25.1238 32.8293 24.7971C32.1833 24.3468 31.6506 23.7764 31.2403 23.1141C30.9379 22.6285 30.1569 23.0735 30.461 23.5609L30.4592 23.5591Z" fill="#222222"/>
<path d="M31.154 25.7241C31.6543 25.1113 32.1563 24.4985 32.6566 23.884C33.0166 23.4443 32.3831 22.8138 32.0196 23.2588C31.5193 23.8716 31.0172 24.4862 30.5169 25.099C30.157 25.5387 30.7904 26.1691 31.154 25.7241Z" fill="#222222"/>
<path d="M30.0308 28.9295C30.6571 29.6253 31.2815 30.321 31.9078 31.0168C32.2929 31.4442 32.9282 30.8173 32.5449 30.3917C31.9204 29.6959 31.2941 29.0001 30.6678 28.3043C30.2827 27.8752 29.6493 28.5039 30.0308 28.9295Z" fill="#222222"/>
<path d="M30.6279 30.8614C31.1714 30.2486 31.7149 29.6358 32.2584 29.0212C32.6382 28.5939 32.0029 27.9652 31.6214 28.3961C31.0779 29.0089 30.5344 29.6234 29.9909 30.2362C29.6111 30.6653 30.2464 31.2922 30.6279 30.8614Z" fill="#222222"/>
<path d="M29.8602 34.8632C30.4559 35.5077 31.0498 36.1541 31.6455 36.7986C32.0342 37.2225 32.6713 36.5956 32.2826 36.1735C31.6869 35.5289 31.093 34.8826 30.4973 34.238C30.1086 33.8142 29.4715 34.4411 29.8602 34.8632Z" fill="#222222"/>
<path d="M30.5956 36.5688C30.9574 35.7458 31.4775 35.0448 32.1721 34.4602C32.613 34.0876 31.9742 33.466 31.5368 33.8351C30.7918 34.462 30.2051 35.239 29.8182 36.1237C29.5914 36.6412 30.3671 37.0932 30.5974 36.5705L30.5956 36.5688Z" fill="#222222"/>
<path d="M29.6382 39.5039C30.2159 40.1237 30.7918 40.7453 31.3695 41.3652C31.7618 41.7872 32.3971 41.1603 32.0065 40.74C31.4307 40.1202 30.8529 39.4986 30.2753 38.8787C29.8829 38.4567 29.2477 39.0836 29.6382 39.5039Z" fill="#222222"/>
<path d="M30.416 40.9644C30.9163 40.3498 31.4184 39.7371 31.9169 39.1225C32.2768 38.681 31.6434 38.0524 31.2798 38.4974C30.7795 39.1119 30.2774 39.7247 29.7789 40.3392C29.419 40.7807 30.0525 41.4094 30.416 40.9644Z" fill="#222222"/>
<path d="M26.0268 23.5255C26.4857 23.9352 26.9446 24.3449 27.4035 24.7528C27.8318 25.1361 28.4707 24.5109 28.0406 24.1277C27.5817 23.718 27.1227 23.3083 26.6638 22.9004C26.2355 22.5189 25.5967 23.1423 26.0268 23.5255Z" fill="#222222"/>
<path d="M26.5342 24.9967C27.0345 24.3821 27.533 23.7676 28.0351 23.153C28.3932 22.7116 27.7597 22.0829 27.398 22.5279C26.8977 23.1424 26.3974 23.757 25.8971 24.3715C25.5371 24.813 26.1706 25.4417 26.5342 24.9967Z" fill="#222222"/>
<path d="M25.5137 28.818C26.0986 29.3902 26.6817 29.9623 27.2684 30.5345C27.6787 30.9371 28.3158 30.312 27.9055 29.9094C27.3206 29.3372 26.7375 28.7633 26.1508 28.1929C25.7387 27.7902 25.1016 28.4154 25.5137 28.818Z" fill="#222222"/>
<path d="M26.3597 30.3141C26.6837 29.5936 27.1696 28.9702 27.8229 28.5075C28.289 28.1773 27.8409 27.4091 27.3675 27.7447C26.5901 28.2956 25.971 29.0055 25.5805 29.8691C25.3466 30.3847 26.1222 30.8351 26.3597 30.3159V30.3141Z" fill="#222222"/>
<path d="M25.2041 34.4886C25.5802 35.1031 25.9546 35.7159 26.3307 36.3304C26.6294 36.8178 27.4087 36.3746 27.11 35.8837C26.7338 35.2691 26.3595 34.6563 25.9834 34.0418C25.6846 33.5544 24.9054 33.9976 25.2041 34.4886Z" fill="#222222"/>
<path d="M25.6615 36.1752C26.1618 35.7249 26.6639 35.2746 27.1624 34.8242C27.5907 34.4393 26.9518 33.8159 26.5253 34.1991C26.025 34.6494 25.5229 35.0997 25.0244 35.55C24.5943 35.935 25.235 36.5584 25.6615 36.1752Z" fill="#222222"/>
<path d="M34.5371 35.1914C34.9942 35.6823 35.455 36.1733 35.9139 36.6642C36.3062 37.0845 36.9415 36.4576 36.5509 36.039C36.092 35.5481 35.6331 35.0572 35.1742 34.5663C34.7819 34.1442 34.1466 34.7711 34.5371 35.1914Z" fill="#222222"/>
<path d="M34.6866 36.682C35.3525 36.0657 36.0183 35.4512 36.6842 34.8348C37.1089 34.4428 36.47 33.8194 36.0471 34.2097C35.3813 34.826 34.7154 35.4406 34.0495 36.0569C33.6266 36.4489 34.2637 37.0723 34.6866 36.682Z" fill="#222222"/>
<path d="M35.0645 29.3973C35.6098 30.0083 36.1551 30.6193 36.7022 31.2303C37.0855 31.6594 37.7208 31.0325 37.3393 30.6052C36.794 29.9942 36.2487 29.3832 35.7016 28.7721C35.3183 28.343 34.683 28.9699 35.0645 29.3973Z" fill="#222222"/>
<path d="M35.4926 30.805C35.9119 30.1003 36.4878 29.5317 37.2077 29.122C37.708 28.8359 37.2563 28.0713 36.7524 28.3591C35.9029 28.843 35.2065 29.5264 34.7134 30.3599C34.4201 30.8526 35.1975 31.2977 35.4908 30.8067L35.4926 30.805Z" fill="#222222"/>
<path d="M35.1617 23.7727C35.6206 24.2637 36.0795 24.7546 36.5384 25.2455C36.9307 25.6676 37.566 25.0389 37.1755 24.6204C36.7184 24.1295 36.2576 23.6385 35.7987 23.1476C35.4064 22.7273 34.7693 23.3525 35.1617 23.7727Z" fill="#222222"/>
<path d="M35.0012 25.4346C35.6743 24.9083 36.3455 24.3821 37.0168 23.8558C37.4721 23.5009 36.8296 22.8793 36.3797 23.2307C35.7084 23.7569 35.0354 24.2832 34.3641 24.8094C33.9088 25.1644 34.5513 25.786 35.0012 25.4346Z" fill="#222222"/>
<path d="M40.136 29.3304C40.8091 29.9379 41.484 30.5454 42.157 31.1528C42.5835 31.5378 43.2224 30.9144 42.7941 30.5277C42.121 29.9202 41.448 29.3127 40.7731 28.7052C40.3466 28.3203 39.7077 28.9437 40.136 29.3304Z" fill="#222222"/>
<path d="M40.6503 30.8156C40.8753 30.1957 41.3558 29.7472 41.9659 29.4947C42.1926 29.4011 42.2394 29.0779 42.1278 28.8907C41.9929 28.6629 41.7391 28.6382 41.5123 28.7318C40.6827 29.0761 40.0798 29.7543 39.7829 30.5807C39.5885 31.1193 40.4578 31.3489 40.6521 30.8156H40.6503Z" fill="#222222"/>
<path d="M20.986 28.8765C21.7364 29.3268 22.4887 29.7771 23.2391 30.2274C23.7358 30.5259 24.1893 29.7612 23.6944 29.4645C22.944 29.0142 22.1935 28.5639 21.443 28.1136C20.9463 27.8152 20.4929 28.5798 20.9878 28.8765H20.986Z" fill="#222222"/>
<path d="M21.4863 30.4835C22.1144 29.8301 22.7425 29.1767 23.3687 28.5251C23.7683 28.1101 23.1312 27.4849 22.7317 27.8999C22.1036 28.5533 21.4755 29.2067 20.8492 29.8583C20.4497 30.2733 21.0868 30.9003 21.4863 30.4835Z" fill="#222222"/>
<path d="M0.885813 47.9522C2.10957 49.2378 3.16238 50.6453 4.05141 52.1728C4.33935 52.6673 5.11861 52.2223 4.82887 51.726C3.90205 50.1331 2.79704 48.6657 1.52109 47.3253C1.12337 46.9085 0.488089 47.5337 0.884012 47.9504L0.885813 47.9522Z" fill="#222222"/>
<path d="M1.37168 45.6139C3.19652 48.065 5.02135 50.5179 6.848 52.969C7.18813 53.4246 7.97099 52.9849 7.62726 52.5222C5.80062 50.0711 3.97574 47.6182 2.1509 45.1671C1.81076 44.7115 1.02975 45.1512 1.37348 45.6139H1.37168Z" fill="#222222"/>
<path d="M2.34492 43.5498C4.4775 46.7815 6.68748 49.9619 8.97664 53.0912C9.31137 53.5503 10.0924 53.1088 9.75405 52.6444C7.4667 49.5151 5.25676 46.3347 3.12238 43.103C2.80924 42.6262 2.02818 43.0695 2.34492 43.5498Z" fill="#222222"/>
<path d="M58.8937 30.697C58.8937 30.697 59.0575 30.8736 59.3256 31.1932C59.5902 31.5093 59.9609 31.9932 60.3353 32.6024C60.7276 33.2046 61.1145 33.9463 61.4799 34.764C61.6454 35.1789 61.8451 35.5992 61.9837 36.0496C62.1403 36.4928 62.2699 36.9519 62.4085 37.4093C62.5146 37.8738 62.628 38.3382 62.7108 38.8009C62.8134 39.26 62.8476 39.7227 62.9088 40.1642C62.9951 41.0525 63.0239 41.886 62.9789 42.5994C62.9519 43.3111 62.8673 43.9009 62.7918 44.3106C62.7144 44.7221 62.6586 44.9517 62.6586 44.9517C62.6586 44.9517 62.601 44.7168 62.5236 44.3124C62.4462 43.9115 62.3364 43.3394 62.2051 42.6506C62.1385 42.3116 62.0647 41.9443 61.9873 41.5558C61.9081 41.1708 61.8236 40.7646 61.7336 40.3443C61.5392 39.509 61.3431 38.6208 61.1019 37.7431C60.877 36.8601 60.6106 35.9895 60.3676 35.1666C60.2363 34.7569 60.1085 34.3613 59.9897 33.9852C59.8638 33.609 59.7468 33.2541 59.637 32.9256C59.4121 32.2616 59.2249 31.7106 59.0935 31.3239C58.9585 30.9301 58.8937 30.7005 58.8937 30.7005V30.697Z" fill="#222222"/>
<path d="M57.4791 26.3354C57.4791 26.3354 57.7454 26.4096 57.9758 26.5438C58.2259 26.6763 58.4401 26.8776 58.5805 27.116C58.7191 27.3562 58.7821 27.6405 58.7677 27.9195C58.7677 28.1862 58.6903 28.4457 58.6903 28.4457C58.6903 28.4457 58.4149 28.4705 58.1414 28.368C57.8498 28.2797 57.5727 28.0555 57.4053 27.7659C57.2415 27.4745 57.1911 27.1248 57.2631 26.8352C57.3153 26.5474 57.4791 26.3354 57.4791 26.3354Z" fill="#222222"/>
</svg>
