<svg width="20" height="20" viewBox="0 0 20 20" fill="none" xmlns="http://www.w3.org/2000/svg">
<g id="archive-book">
<g id="vuesax/linear/archive-book">
<g id="archive-book_2">
<path id="Vector" d="M17.5 5.83329V14.1666C17.5 16.6666 16.25 18.3333 13.3333 18.3333H6.66667C3.75 18.3333 2.5 16.6666 2.5 14.1666V5.83329C2.5 3.33329 3.75 1.66663 6.66667 1.66663H13.3333C16.25 1.66663 17.5 3.33329 17.5 5.83329Z" stroke="#303030" stroke-width="1.5" stroke-miterlimit="10" stroke-linecap="round" stroke-linejoin="round"/>
<path id="Vector_2" d="M12.9167 1.66663V8.21661C12.9167 8.58328 12.4834 8.76661 12.2167 8.52494L10.2834 6.74165C10.1251 6.59165 9.87502 6.59165 9.71669 6.74165L7.7834 8.52494C7.51673 8.76661 7.08337 8.58328 7.08337 8.21661V1.66663H12.9167Z" stroke="#303030" stroke-width="1.5" stroke-miterlimit="10" stroke-linecap="round" stroke-linejoin="round"/>
<path id="Vector_3" d="M11.0416 11.6666H14.5833" stroke="#303030" stroke-width="1.5" stroke-miterlimit="10" stroke-linecap="round" stroke-linejoin="round"/>
<path id="Vector_4" d="M7.5 15H14.5833" stroke="#303030" stroke-width="1.5" stroke-miterlimit="10" stroke-linecap="round" stroke-linejoin="round"/>
</g>
</g>
</g>
</svg>
